<svg preserveAspectRatio="none" width="100%" height="100%" overflow="visible" style="display: block;" viewBox="0 0 1603 865" fill="none" xmlns="http://www.w3.org/2000/svg">
<g id="Mask group">
<mask id="mask0_2_876" style="mask-type:alpha" maskUnits="userSpaceOnUse" x="107" y="32" width="1445" height="553">
<path id="Union" d="M829.5 32C1228.53 32 1552 155.793 1552 308.5C1552 317.048 1550.98 325.504 1549 333.854V585H109V329.214C107.677 322.375 107 315.468 107 308.5C107 155.793 430.474 32 829.5 32Z" fill="var(--fill-0, #8F4027)"/>
</mask>
<g mask="url(#mask0_2_876)">
</g>
<g id="Logo-02 1">
<path id="Vector" d="M850.163 169.654C857.05 166.948 861.682 160.595 862.144 153.394C862.173 153.399 862.19 153.402 862.19 153.402V163.89C862.19 171.573 857.426 178.483 850.162 181.337C842.897 184.19 838.134 191.1 838.134 198.784V194.384V187.1C838.134 179.416 842.897 172.507 850.162 169.653L850.163 169.654Z" fill="var(--fill-0, #CA8454)"/>
<path id="Vector_2" d="M826.194 169.654C819.307 166.948 814.675 160.595 814.212 153.394C814.184 153.399 814.167 153.402 814.167 153.402V163.89C814.167 171.573 818.93 178.483 826.195 181.337C833.459 184.19 838.223 191.1 838.223 198.784V187.101C838.223 179.417 833.459 172.507 826.195 169.654H826.194Z" fill="var(--fill-0, #373E6E)"/>
<path id="Vector_3" d="M838.176 172.661V160.978C838.176 153.294 833.412 146.384 826.148 143.53C826.07 143.505 825.992 143.479 825.914 143.454C820.104 141.558 814.12 145.852 814.12 151.864V152.207C814.12 152.606 814.14 153.001 814.165 153.395C814.626 153.322 818.774 152.767 826.147 155.214C833.412 158.068 838.175 164.978 838.175 172.661L838.176 172.661Z" fill="var(--fill-0, #D8584D)"/>
<path id="Vector_4" d="M826.149 155.213C818.776 152.766 814.627 153.321 814.167 153.394C814.629 160.595 819.261 166.948 826.149 169.654C833.413 172.507 838.177 179.417 838.177 187.101V172.661C838.177 164.977 833.413 158.067 826.149 155.213Z" fill="var(--fill-0, #C8D144)"/>
<path id="Vector_5" d="M838.177 172.661V160.978C838.177 153.294 842.941 146.384 850.205 143.53C850.283 143.505 850.361 143.479 850.439 143.454C856.249 141.558 862.233 145.852 862.233 151.864V152.207C862.233 152.606 862.213 153.001 862.188 153.395C861.727 153.322 857.579 152.767 850.206 155.214C842.942 158.068 838.178 164.978 838.178 172.661L838.177 172.661Z" fill="var(--fill-0, #E9A588)"/>
<path id="Vector_6" d="M850.209 155.213C857.582 152.766 861.731 153.321 862.191 153.394C861.728 160.595 857.096 166.948 850.209 169.654C842.944 172.507 838.181 179.417 838.181 187.101V172.661C838.181 164.977 842.944 158.067 850.209 155.213Z" fill="var(--fill-0, #F4E09A)"/>
<path id="Vector_7" d="M690.024 165.18C690.78 165.196 691.357 165.391 691.741 165.76C692.123 166.127 692.316 166.661 692.316 167.348C692.316 168.034 692.108 168.905 691.696 169.848L687.111 180.555L681.916 168.492C681.47 167.464 681.244 166.685 681.244 166.175C681.244 165.813 681.36 165.566 681.597 165.423C681.864 165.261 682.318 165.179 682.947 165.179V164.594C682.14 164.594 681.422 164.611 680.806 164.647C680.638 164.663 680.395 164.672 680.084 164.672H678.546C678.27 164.672 678.055 164.663 677.896 164.647C677.359 164.611 676.72 164.594 676 164.594V165.179C676.597 165.179 677.095 165.284 677.478 165.492C677.861 165.701 678.212 166.042 678.52 166.506C678.837 166.988 679.202 167.708 679.604 168.651L686.074 183.566H686.478L692.842 168.887C693.379 167.678 693.935 166.735 694.494 166.084C695.034 165.457 695.62 165.153 696.287 165.153V164.568C695.702 164.568 695.118 164.585 694.543 164.621C694.372 164.638 694.158 164.646 693.906 164.646L692.874 164.619C691.475 164.567 690.544 164.541 690.028 164.541L690.024 165.179V165.18Z" fill="var(--fill-0, white)"/>
<path id="Vector_8" d="M720.371 182.773C719.608 182.756 719.064 182.679 718.753 182.543C718.479 182.423 718.282 182.135 718.166 181.687C718.037 181.195 717.973 180.348 717.973 179.172V168.728C717.973 167.552 718.038 166.705 718.166 166.212C718.282 165.764 718.479 165.477 718.753 165.357C719.061 165.221 719.604 165.153 720.366 165.153V164.568C719.553 164.568 718.852 164.585 718.285 164.62H718.278C718.107 164.638 717.864 164.646 717.556 164.646H716.23C715.922 164.646 715.679 164.638 715.5 164.62C714.933 164.585 714.232 164.568 713.419 164.568V165.153C714.182 165.153 714.725 165.221 715.033 165.356C715.307 165.477 715.505 165.765 715.621 166.211C715.748 166.705 715.813 167.552 715.813 168.727V179.171C715.813 180.347 715.748 181.194 715.621 181.687C715.505 182.134 715.306 182.422 715.033 182.542C714.723 182.678 714.178 182.756 713.419 182.772V183.357C714.233 183.357 714.933 183.34 715.509 183.304C715.674 183.288 715.918 183.279 716.23 183.279H717.557C717.869 183.279 718.113 183.288 718.286 183.305C718.853 183.34 719.553 183.357 720.367 183.357L720.371 182.772V182.773Z" fill="var(--fill-0, white)"/>
<path id="Vector_9" d="M738.134 183.358C738.947 183.358 739.647 183.34 740.223 183.305C740.389 183.288 740.632 183.28 740.945 183.28H746.063C748.502 183.28 750.634 182.916 752.4 182.197C754.18 181.473 755.564 180.396 756.511 178.997C757.457 177.599 757.937 175.905 757.937 173.963C757.937 172.021 757.462 170.333 756.524 168.942C755.585 167.552 754.207 166.475 752.427 165.742C750.66 165.014 748.51 164.646 746.036 164.646H740.945C740.637 164.646 740.394 164.638 740.215 164.62C739.648 164.585 738.947 164.568 738.134 164.568V165.153C738.897 165.153 739.44 165.221 739.748 165.356C740.022 165.477 740.22 165.765 740.336 166.211C740.463 166.705 740.528 167.552 740.528 168.727V179.171C740.528 180.347 740.463 181.194 740.336 181.687C740.22 182.134 740.021 182.422 739.748 182.542C739.438 182.678 738.894 182.756 738.134 182.772V183.357L738.134 183.358ZM742.688 178.807V169.093C742.688 167.956 742.701 167.141 742.727 166.669C742.751 166.249 742.799 165.784 742.873 165.283H746.01C747.896 165.283 749.57 165.631 750.985 166.318C752.391 167 753.495 168.003 754.267 169.299C755.04 170.599 755.432 172.168 755.432 173.964C755.432 176.707 754.627 178.862 753.041 180.369C751.453 181.878 749.168 182.643 746.249 182.643H742.974C742.868 182.031 742.794 181.502 742.754 181.068C742.71 180.601 742.689 179.841 742.689 178.808L742.688 178.807Z" fill="var(--fill-0, white)"/>
<path id="Vector_10" d="M793.162 182.773C792.692 182.773 792.292 182.67 791.974 182.467C791.649 182.26 791.345 181.919 791.071 181.454C790.785 180.968 790.436 180.244 790.036 179.302L783.539 164.151H783.232L783.172 164.25C782.97 164.587 782.535 164.864 781.853 165.084C781.755 165.132 781.661 165.251 781.728 165.448L782.514 167.24L776.747 179.086C776.174 180.279 775.608 181.207 775.064 181.842C774.55 182.444 774.007 182.757 773.458 182.773V183.358C773.955 183.358 774.443 183.34 774.914 183.305C775.066 183.288 775.252 183.28 775.473 183.28C775.939 183.28 776.308 183.288 776.606 183.307C777.594 183.341 778.578 183.359 779.53 183.359L779.534 182.773C778.663 182.758 777.999 182.583 777.558 182.254C777.131 181.936 776.923 181.499 776.923 180.918C776.923 180.43 777.077 179.872 777.381 179.258L778.254 177.446H786.9L787.773 179.456C788.185 180.452 788.394 181.171 788.394 181.594C788.394 182.018 788.238 182.287 787.918 182.459C787.558 182.651 786.956 182.756 786.133 182.773V183.358C787.156 183.358 788.035 183.34 788.748 183.306C788.97 183.288 789.268 183.28 789.66 183.28H791.119C791.292 183.28 791.539 183.293 791.859 183.318C792.189 183.344 792.627 183.358 793.161 183.358V182.773H793.162ZM782.835 168.047L786.62 176.808H778.582L782.835 168.047Z" fill="var(--fill-0, white)"/>
<path id="Vector_11" d="M911.443 164.647C910.63 164.647 909.929 164.665 909.355 164.7C909.183 164.717 908.949 164.725 908.659 164.725H907.381L899.951 175.673L891.603 164.725H890.758C890.468 164.725 890.233 164.717 890.055 164.699C889.487 164.665 888.778 164.647 887.947 164.647L887.969 165.232C888.735 165.25 889.275 165.322 889.577 165.45C889.841 165.562 890.034 165.845 890.149 166.291C890.278 166.785 890.342 167.631 890.342 168.807V179.329C890.342 180.426 890.109 181.303 889.65 181.934C889.2 182.551 888.548 182.851 887.656 182.851V183.437C888.364 183.437 889.099 183.419 889.848 183.385C890.052 183.367 890.324 183.359 890.679 183.359C891.034 183.359 891.348 183.367 891.598 183.385C892.375 183.42 893.198 183.437 894.047 183.437L894.05 182.852C893.031 182.836 892.291 182.493 891.787 181.803C891.276 181.103 891.017 180.131 891.017 178.913V167.687L899.578 178.769C899.683 178.87 899.779 178.876 899.843 178.861L899.971 178.801L900.013 178.713C900.159 178.411 900.533 178.013 901.126 177.532L901.277 177.409L900.371 176.224L906.89 166.56V179.252C906.89 180.445 906.83 181.301 906.709 181.796C906.602 182.242 906.409 182.529 906.136 182.649C905.827 182.784 905.283 182.862 904.483 182.882L904.465 183.471C904.486 183.471 904.507 183.469 904.527 183.464C905.412 183.446 906.066 183.42 906.518 183.386L908.66 183.334C908.95 183.334 909.184 183.342 909.363 183.359C909.93 183.394 910.63 183.412 911.444 183.412L911.448 182.827C910.684 182.81 910.145 182.733 909.845 182.598C909.579 182.478 909.384 182.189 909.269 181.741C909.141 181.249 909.076 180.402 909.076 179.225V168.807C909.076 167.631 909.141 166.785 909.269 166.291C909.385 165.844 909.579 165.555 909.845 165.435C910.143 165.3 910.682 165.232 911.443 165.232V164.647Z" fill="var(--fill-0, white)"/>
<path id="Vector_12" d="M930.755 162.985C930.805 163.017 930.861 163.032 930.915 163.032C930.956 163.032 930.996 163.024 931.029 163.006C931.888 162.707 932.665 162.346 933.337 161.932C934.012 161.516 934.541 161.096 934.908 160.683C935.295 160.245 935.493 159.874 935.515 159.534C935.515 159.075 935.266 158.812 934.832 158.812C934.618 158.812 934.428 158.893 934.284 159.046C934.168 159.169 934.005 159.396 933.785 159.738C933.405 160.314 933.002 160.835 932.585 161.287C932.18 161.726 931.574 162.154 930.786 162.559L930.737 162.594C930.653 162.675 930.642 162.757 930.647 162.81L930.673 162.931L930.755 162.984V162.985Z" fill="var(--fill-0, white)"/>
<path id="Vector_13" d="M936.163 182.851C935.399 182.835 934.855 182.758 934.545 182.621C934.271 182.501 934.073 182.214 933.957 181.766C933.829 181.274 933.765 180.427 933.765 179.25V168.807C933.765 167.63 933.829 166.784 933.957 166.291C934.073 165.843 934.271 165.555 934.545 165.435C934.852 165.3 935.395 165.231 936.158 165.231V164.647C935.344 164.647 934.644 164.664 934.077 164.699H934.069C933.899 164.716 933.655 164.725 933.347 164.725H932.021C931.713 164.725 931.47 164.716 931.292 164.699C930.724 164.664 930.024 164.647 929.211 164.647V165.231C929.973 165.231 930.516 165.3 930.824 165.435C931.099 165.556 931.297 165.844 931.412 166.29C931.54 166.784 931.604 167.63 931.604 168.806V179.25C931.604 180.426 931.539 181.272 931.412 181.765C931.296 182.213 931.098 182.501 930.824 182.621C930.514 182.757 929.97 182.834 929.211 182.851V183.436C930.025 183.436 930.724 183.418 931.3 183.383C931.466 183.366 931.709 183.358 932.022 183.358H933.348C933.661 183.358 933.904 183.366 934.077 183.384C934.644 183.418 935.345 183.436 936.158 183.436L936.163 182.851V182.851Z" fill="var(--fill-0, white)"/>
<path id="Vector_14" d="M972.994 182.851C972.524 182.851 972.124 182.748 971.806 182.545C971.482 182.339 971.178 181.998 970.903 181.533C970.618 181.046 970.269 180.323 969.868 179.381L963.371 164.23H963.064L963.004 164.329C962.803 164.666 962.367 164.942 961.685 165.163C961.587 165.21 961.494 165.33 961.561 165.527L962.346 167.318L956.579 179.165C956.006 180.358 955.44 181.285 954.896 181.921C954.382 182.523 953.839 182.836 953.29 182.851V183.437C953.787 183.437 954.275 183.419 954.746 183.384C954.898 183.366 955.084 183.359 955.305 183.359C955.771 183.359 956.14 183.367 956.438 183.385C957.426 183.42 958.41 183.437 959.362 183.437L959.366 182.852C958.496 182.836 957.831 182.661 957.39 182.333C956.964 182.015 956.756 181.578 956.756 180.996C956.756 180.509 956.91 179.951 957.214 179.337L958.086 177.525H966.732L967.605 179.535C968.017 180.531 968.226 181.25 968.226 181.673C968.226 182.096 968.07 182.366 967.75 182.538C967.391 182.73 966.788 182.835 965.965 182.851V183.437C966.989 183.437 967.867 183.419 968.58 183.385C968.802 183.367 969.1 183.359 969.492 183.359H970.951C971.125 183.359 971.371 183.372 971.691 183.397C972.022 183.423 972.46 183.437 972.993 183.437V182.851H972.994ZM962.667 168.126L966.452 176.887H958.415L962.667 168.126Z" fill="var(--fill-0, white)"/>
<g id="Group">
<path id="Vector_15" d="M981.273 181.129C981.362 181.111 981.489 181.101 981.611 181.101C981.8 181.101 981.921 181.135 982.006 181.211C982.075 181.27 982.113 181.362 982.113 181.465C982.113 181.642 982 181.759 981.856 181.807V181.813C981.961 181.849 982.024 181.944 982.057 182.084C982.101 182.271 982.134 182.4 982.162 182.452H981.98C981.958 182.414 981.927 182.299 981.889 182.132C981.848 181.947 981.775 181.877 981.615 181.871H981.449V182.452H981.273V181.129H981.273ZM981.449 181.74H981.629C981.818 181.74 981.937 181.639 981.937 181.485C981.937 181.312 981.809 181.236 981.623 181.235C981.538 181.235 981.477 181.243 981.449 181.251V181.74Z" fill="var(--fill-0, white)"/>
<path id="Vector_16" d="M981.629 183.086C980.873 183.086 980.258 182.482 980.258 181.74C980.258 180.997 980.873 180.393 981.629 180.393C982.385 180.393 983 180.997 983 181.74C983 182.482 982.385 183.086 981.629 183.086ZM981.629 180.559C980.966 180.559 980.427 181.089 980.427 181.74C980.427 182.39 980.967 182.92 981.629 182.92C982.291 182.92 982.831 182.39 982.831 181.74C982.831 181.089 982.291 180.559 981.629 180.559Z" fill="var(--fill-0, white)"/>
</g>
</g>
<g id="Ellipse 11" filter="url(#filter0_f_2_876)">
<ellipse cx="801.5" cy="432.5" rx="507.5" ry="138.5" fill="var(--fill-0, #C35F3E)"/>
</g>
</g>
<defs>
<filter id="filter0_f_2_876" x="0" y="0" width="1603" height="865" filterUnits="userSpaceOnUse" color-interpolation-filters="sRGB">
<feFlood flood-opacity="0" result="BackgroundImageFix"/>
<feBlend mode="normal" in="SourceGraphic" in2="BackgroundImageFix" result="shape"/>
<feGaussianBlur stdDeviation="147" result="effect1_foregroundBlur_2_876"/>
</filter>
</defs>
</svg>
