<svg preserveAspectRatio="none" width="100%" height="100%" overflow="visible" style="display: block;" viewBox="0 0 49 49" fill="none" xmlns="http://www.w3.org/2000/svg">
<g id="location_fill">
<g id="Vector">
</g>
<path id="Vector_2" d="M24.5 4.08325C29.3734 4.08325 34.0471 6.01918 37.4931 9.46516C40.9391 12.9111 42.875 17.5849 42.875 22.4583C42.875 28.7343 39.4532 33.8712 35.8476 37.5564C34.0458 39.3773 32.0803 41.0285 29.9758 42.489L29.106 43.0811L28.6977 43.3527L27.928 43.8427L27.242 44.2612L26.3926 44.7553C25.8159 45.0836 25.1636 45.2562 24.5 45.2562C23.8364 45.2562 23.1841 45.0836 22.6074 44.7553L21.758 44.2612L20.6964 43.6079L20.3044 43.3527L19.4673 42.7953C17.1969 41.2586 15.0819 39.504 13.1524 37.5564C9.54683 33.8691 6.125 28.7343 6.125 22.4583C6.125 17.5849 8.06093 12.9111 11.5069 9.46516C14.9529 6.01918 19.6266 4.08325 24.5 4.08325ZM24.5 16.3333C23.6957 16.3333 22.8992 16.4917 22.1561 16.7995C21.4129 17.1073 20.7377 17.5585 20.169 18.1272C19.6002 18.696 19.149 19.3712 18.8412 20.1143C18.5334 20.8574 18.375 21.6539 18.375 22.4583C18.375 23.2626 18.5334 24.0591 18.8412 24.8022C19.149 25.5453 19.6002 26.2205 20.169 26.7893C20.7377 27.358 21.4129 27.8092 22.1561 28.117C22.8992 28.4248 23.6957 28.5833 24.5 28.5833C26.1245 28.5833 27.6824 27.9379 28.831 26.7893C29.9797 25.6406 30.625 24.0827 30.625 22.4583C30.625 20.8338 29.9797 19.2759 28.831 18.1272C27.6824 16.9786 26.1245 16.3333 24.5 16.3333Z" fill="var(--fill-0, #4156A9)"/>
</g>
</svg>
