<svg preserveAspectRatio="none" width="100%" height="100%" overflow="visible" style="display: block;" viewBox="0 0 119 23" fill="none" xmlns="http://www.w3.org/2000/svg">
<g id="Frame 51">
<path id="Star 1" d="M10.5489 2.92705C10.8483 2.00574 12.1517 2.00574 12.4511 2.92705L13.8574 7.25532C13.9913 7.66734 14.3752 7.9463 14.8085 7.9463H19.3595C20.3282 7.9463 20.731 9.18592 19.9473 9.75532L16.2654 12.4303C15.9149 12.685 15.7683 13.1364 15.9021 13.5484L17.3085 17.8766C17.6078 18.798 16.5533 19.5641 15.7696 18.9947L12.0878 16.3197C11.7373 16.065 11.2627 16.065 10.9122 16.3197L7.23037 18.9947C6.44665 19.5641 5.39217 18.798 5.69153 17.8766L7.09787 13.5484C7.23174 13.1364 7.08508 12.685 6.7346 12.4303L3.05275 9.75532C2.26904 9.18592 2.67181 7.9463 3.64053 7.9463H8.19155C8.62477 7.9463 9.00873 7.66734 9.1426 7.25532L10.5489 2.92705Z" fill="var(--fill-0, #8F4027)"/>
<path id="Star 2" d="M34.5489 2.92705C34.8483 2.00574 36.1517 2.00574 36.4511 2.92705L37.8574 7.25532C37.9913 7.66734 38.3752 7.9463 38.8085 7.9463H43.3595C44.3282 7.9463 44.731 9.18592 43.9473 9.75532L40.2654 12.4303C39.9149 12.685 39.7683 13.1364 39.9021 13.5484L41.3085 17.8766C41.6078 18.798 40.5533 19.5641 39.7696 18.9947L36.0878 16.3197C35.7373 16.065 35.2627 16.065 34.9122 16.3197L31.2304 18.9947C30.4467 19.5641 29.3922 18.798 29.6915 17.8766L31.0979 13.5484C31.2317 13.1364 31.0851 12.685 30.7346 12.4303L27.0527 9.75532C26.269 9.18592 26.6718 7.9463 27.6405 7.9463H32.1915C32.6248 7.9463 33.0087 7.66734 33.1426 7.25532L34.5489 2.92705Z" fill="var(--fill-0, #8F4027)"/>
<path id="Star 3" d="M58.5489 2.92705C58.8483 2.00574 60.1517 2.00574 60.4511 2.92705L61.8574 7.25532C61.9913 7.66734 62.3752 7.9463 62.8085 7.9463H67.3595C68.3282 7.9463 68.731 9.18592 67.9473 9.75532L64.2654 12.4303C63.9149 12.685 63.7683 13.1364 63.9021 13.5484L65.3085 17.8766C65.6078 18.798 64.5533 19.5641 63.7696 18.9947L60.0878 16.3197C59.7373 16.065 59.2627 16.065 58.9122 16.3197L55.2304 18.9947C54.4467 19.5641 53.3922 18.798 53.6915 17.8766L55.0979 13.5484C55.2317 13.1364 55.0851 12.685 54.7346 12.4303L51.0527 9.75532C50.269 9.18592 50.6718 7.9463 51.6405 7.9463H56.1915C56.6248 7.9463 57.0087 7.66734 57.1426 7.25532L58.5489 2.92705Z" fill="var(--fill-0, #8F4027)"/>
<path id="Star 4" d="M82.5489 2.92705C82.8483 2.00574 84.1517 2.00574 84.4511 2.92705L85.8574 7.25532C85.9913 7.66734 86.3752 7.9463 86.8085 7.9463H91.3595C92.3282 7.9463 92.731 9.18592 91.9473 9.75532L88.2654 12.4303C87.9149 12.685 87.7683 13.1364 87.9021 13.5484L89.3085 17.8766C89.6078 18.798 88.5533 19.5641 87.7696 18.9947L84.0878 16.3197C83.7373 16.065 83.2627 16.065 82.9122 16.3197L79.2304 18.9947C78.4467 19.5641 77.3922 18.798 77.6915 17.8766L79.0979 13.5484C79.2317 13.1364 79.0851 12.685 78.7346 12.4303L75.0527 9.75532C74.269 9.18592 74.6718 7.9463 75.6405 7.9463H80.1915C80.6248 7.9463 81.0087 7.66734 81.1426 7.25532L82.5489 2.92705Z" fill="var(--fill-0, #8F4027)"/>
<path id="Star 5" d="M107.024 3.08203C107.174 2.62138 107.826 2.62138 107.976 3.08203L109.382 7.41016C109.583 8.02803 110.159 8.44629 110.809 8.44629H115.359C115.844 8.44629 116.045 9.06586 115.653 9.35059L111.972 12.0254C111.446 12.4074 111.226 13.0851 111.427 13.7031L112.833 18.0312C112.983 18.4919 112.455 18.8745 112.063 18.5898L108.382 15.915C107.856 15.5331 107.144 15.5331 106.618 15.915L102.937 18.5898C102.545 18.8745 102.017 18.4919 102.167 18.0312L103.573 13.7031C103.774 13.0851 103.554 12.4074 103.028 12.0254L99.3467 9.35059C98.9549 9.06586 99.1563 8.44629 99.6406 8.44629H104.191C104.841 8.44629 105.417 8.02803 105.618 7.41016L107.024 3.08203Z" fill="var(--fill-0, #8F4027)" stroke="var(--stroke-0, #8F4027)"/>
</g>
</svg>
