<svg preserveAspectRatio="none" width="100%" height="100%" overflow="visible" style="display: block;" viewBox="0 0 17 17" fill="none" xmlns="http://www.w3.org/2000/svg">
<g id="location_fill">
<g id="Vector">
</g>
<path id="Vector_2" d="M8.5 1.41664C10.1908 1.41664 11.8123 2.08829 13.0078 3.28383C14.2033 4.47938 14.875 6.10088 14.875 7.79164C14.875 9.96905 13.6878 11.7512 12.4369 13.0298C11.8118 13.6615 11.1299 14.2344 10.3997 14.7411L10.098 14.9465L9.95633 15.0407L9.68929 15.2107L9.45129 15.3559L9.15662 15.5273C8.95653 15.6412 8.73024 15.7011 8.5 15.7011C8.26976 15.7011 8.04347 15.6412 7.84337 15.5273L7.54871 15.3559L7.18037 15.1293L7.04437 15.0407L6.75396 14.8473C5.96628 14.3142 5.23251 13.7055 4.56308 13.0298C3.31217 11.7505 2.125 9.96905 2.125 7.79164C2.125 6.10088 2.79665 4.47938 3.99219 3.28383C5.18774 2.08829 6.80924 1.41664 8.5 1.41664ZM8.5 5.66664C8.22094 5.66664 7.94461 5.7216 7.6868 5.82839C7.42898 5.93519 7.19472 6.09171 6.9974 6.28904C6.80007 6.48636 6.64355 6.72062 6.53676 6.97844C6.42996 7.23625 6.375 7.51258 6.375 7.79164C6.375 8.0707 6.42996 8.34702 6.53676 8.60484C6.64355 8.86266 6.80007 9.09692 6.9974 9.29424C7.19472 9.49156 7.42898 9.64809 7.6868 9.75488C7.94461 9.86167 8.22094 9.91664 8.5 9.91664C9.06358 9.91664 9.60409 9.69276 10.0026 9.29424C10.4011 8.89573 10.625 8.35522 10.625 7.79164C10.625 7.22805 10.4011 6.68755 10.0026 6.28904C9.60409 5.89052 9.06358 5.66664 8.5 5.66664Z" fill="var(--fill-0, #4156A9)"/>
</g>
</svg>
