<svg preserveAspectRatio="none" width="100%" height="100%" overflow="visible" style="display: block;" viewBox="0 0 44 44" fill="none" xmlns="http://www.w3.org/2000/svg">
<g id="whatsapp_fill">
<g id="Vector">
</g>
<path id="Vector_2" fill-rule="evenodd" clip-rule="evenodd" d="M22 3.66667C11.8745 3.66667 3.66667 11.8745 3.66667 22C3.66667 25.465 4.62917 28.71 6.303 31.4747L4.66767 37.0333C4.57377 37.3525 4.56759 37.691 4.64978 38.0134C4.73197 38.3358 4.89949 38.63 5.13473 38.8653C5.36996 39.1005 5.66423 39.268 5.9866 39.3502C6.30896 39.4324 6.64752 39.4262 6.96667 39.3323L12.5253 37.697C15.3829 39.426 18.6601 40.3379 22 40.3333C32.1255 40.3333 40.3333 32.1255 40.3333 22C40.3333 11.8745 32.1255 3.66667 22 3.66667ZM17.853 26.1488C21.5618 29.8558 25.102 30.3453 26.3523 30.3912C28.2535 30.4608 30.1052 29.0088 30.8257 27.324C30.9166 27.1144 30.9496 26.8842 30.9213 26.6575C30.8929 26.4308 30.8042 26.2159 30.6643 26.0352C29.6597 24.7518 28.3012 23.8297 26.9738 22.913C26.6967 22.7214 26.3561 22.6445 26.0236 22.6985C25.691 22.7525 25.3923 22.9332 25.19 23.2027L24.09 24.8802C24.0322 24.9703 23.9421 25.035 23.8381 25.0609C23.7341 25.0868 23.6242 25.072 23.5308 25.0195C22.7847 24.5923 21.6975 23.8663 20.9165 23.0853C20.1355 22.3043 19.4535 21.2667 19.0703 20.5682C19.0228 20.4794 19.0091 20.3765 19.0317 20.2784C19.0543 20.1803 19.1116 20.0937 19.1932 20.0347L20.8872 18.777C21.1289 18.5668 21.2849 18.275 21.3255 17.9572C21.3661 17.6395 21.2884 17.3179 21.1072 17.0537C20.2858 15.851 19.3288 14.322 17.941 13.3082C17.7619 13.1784 17.5521 13.0974 17.3322 13.0733C17.1123 13.0492 16.89 13.0828 16.687 13.1707C15.0003 13.893 13.541 15.7447 13.6107 17.6495C13.6565 18.8998 14.146 22.44 17.853 26.1488Z" fill="var(--fill-0, white)"/>
</g>
</svg>
