<svg preserveAspectRatio="none" width="100%" height="100%" overflow="visible" style="display: block;" viewBox="0 0 205 48" fill="none" xmlns="http://www.w3.org/2000/svg">
<g id="Logo-02 1" clip-path="url(#clip0_2_916)">
<path id="Vector" d="M116.297 17.7692C120.897 15.9653 123.989 11.73 124.298 6.9295C124.317 6.93266 124.329 6.93447 124.329 6.93447V13.9264C124.329 19.0489 121.148 23.6554 116.297 25.5578C111.446 27.4602 108.265 32.0668 108.265 37.1893V34.2559V29.4002C108.265 24.2777 111.446 19.6711 116.297 17.7687L116.297 17.7692Z" fill="var(--fill-0, #CA8454)"/>
<path id="Vector_2" d="M100.292 17.7692C95.6934 15.9653 92.6006 11.73 92.2916 6.9295C92.2727 6.93266 92.2611 6.93447 92.2611 6.93447V13.9264C92.2611 19.0489 95.442 23.6554 100.293 25.5578C105.144 27.4602 108.325 32.0668 108.325 37.1893V29.4006C108.325 24.2781 105.144 19.6716 100.293 17.7692H100.292Z" fill="var(--fill-0, #373E6E)"/>
<path id="Vector_3" d="M108.293 19.7738V11.9851C108.293 6.86257 105.112 2.25602 100.262 0.353619C100.209 0.336436 100.157 0.319252 100.105 0.302521C96.2261 -0.961375 92.2298 1.90104 92.2298 5.90933V6.13815C92.2298 6.40404 92.2436 6.66722 92.2602 6.92995C92.5678 6.88111 95.3378 6.51121 100.261 8.14274C105.112 10.0451 108.293 14.6517 108.293 19.7742L108.293 19.7738Z" fill="var(--fill-0, #D8584D)"/>
<path id="Vector_4" d="M100.262 8.14229C95.3387 6.51076 92.5683 6.88066 92.2611 6.9295C92.5701 11.73 95.6629 15.9653 100.262 17.7692C105.113 19.6716 108.294 24.2781 108.294 29.4006V19.7737C108.294 14.6512 105.113 10.0447 100.262 8.14229Z" fill="var(--fill-0, #C8D144)"/>
<path id="Vector_5" d="M108.294 19.7738V11.9851C108.294 6.86257 111.475 2.25602 116.326 0.353619C116.378 0.336436 116.43 0.319252 116.482 0.302521C120.362 -0.961375 124.358 1.90104 124.358 5.90933V6.13815C124.358 6.40404 124.344 6.66722 124.327 6.92995C124.02 6.88111 121.25 6.51121 116.327 8.14274C111.476 10.0451 108.295 14.6517 108.295 19.7742L108.294 19.7738Z" fill="var(--fill-0, #E9A588)"/>
<path id="Vector_6" d="M116.328 8.14229C121.252 6.51076 124.022 6.88066 124.329 6.9295C124.02 11.73 120.927 15.9653 116.328 17.7692C111.477 19.6716 108.297 24.2781 108.297 29.4006V19.7737C108.297 14.6512 111.477 10.0447 116.328 8.14229Z" fill="var(--fill-0, #F4E09A)"/>
<path id="Vector_7" d="M9.36466 14.7864C9.86921 14.7973 10.2548 14.9275 10.5112 15.1731C10.7662 15.4177 10.8954 15.7741 10.8954 16.2317C10.8954 16.6893 10.7561 17.2699 10.4808 17.8985L7.41932 25.0364L3.95064 16.995C3.6527 16.3095 3.50143 15.7899 3.50143 15.4503C3.50143 15.2088 3.57891 15.0442 3.7371 14.9483C3.91558 14.8407 4.21905 14.786 4.63921 14.786V14.3957C4.10006 14.3957 3.62088 14.4075 3.20903 14.4315C3.09696 14.4423 2.93507 14.4478 2.72707 14.4478H1.69998C1.51596 14.4478 1.37207 14.4423 1.26599 14.431C0.90718 14.4075 0.481031 14.3957 0 14.3957V14.786C0.398938 14.786 0.731001 14.8561 0.986967 14.9949C1.24293 15.1342 1.47676 15.3616 1.68246 15.6709C1.89461 15.992 2.13812 16.4722 2.40654 17.1004L6.72706 27.0438H6.9964L11.2464 17.2577C11.6052 16.4519 11.9764 15.8233 12.3495 15.3892C12.7097 14.9714 13.1013 14.7684 13.5468 14.7684V14.3786C13.1562 14.3786 12.766 14.3903 12.3823 14.4138C12.2679 14.4251 12.1249 14.4306 11.9566 14.4306L11.2676 14.4129C10.3332 14.3781 9.71148 14.3609 9.36742 14.3609L9.36466 14.786V14.7864Z" fill="var(--fill-0, white)"/>
<path id="Vector_8" d="M29.6288 26.5151C29.1192 26.5043 28.7558 26.4527 28.5487 26.3618C28.3656 26.2818 28.2337 26.0901 28.1562 25.7916C28.0705 25.4633 28.0276 24.899 28.0276 24.1144V17.1519C28.0276 16.3678 28.0709 15.8034 28.1562 15.4747C28.2337 15.1762 28.3656 14.9845 28.5487 14.9045C28.754 14.814 29.1165 14.7684 29.6256 14.7684V14.3786C29.0823 14.3786 28.6147 14.3903 28.236 14.4134H28.2309C28.117 14.4251 27.9547 14.4306 27.749 14.4306H26.8635C26.6578 14.4306 26.4955 14.4251 26.3765 14.4134C25.9974 14.3903 25.5297 14.3786 24.9869 14.3786V14.7684C25.496 14.7684 25.8585 14.814 26.0642 14.904C26.2473 14.985 26.3797 15.1767 26.4567 15.4742C26.542 15.8034 26.5849 16.3678 26.5849 17.1514V24.114C26.5849 24.8981 26.5416 25.4624 26.4567 25.7912C26.3792 26.0896 26.2469 26.2813 26.0642 26.3614C25.8572 26.4523 25.4937 26.5038 24.9869 26.5147V26.9049C25.5302 26.9049 25.9974 26.8932 26.382 26.8697C26.4927 26.8583 26.655 26.8529 26.864 26.8529H27.7495C27.9584 26.8529 28.1207 26.8584 28.2365 26.8701C28.6151 26.8932 29.0828 26.9049 29.6261 26.9049L29.6288 26.5147V26.5151Z" fill="var(--fill-0, white)"/>
<path id="Vector_9" d="M41.49 26.9054C42.0333 26.9054 42.5005 26.8936 42.8851 26.8701C42.9958 26.8588 43.1581 26.8534 43.3671 26.8534H46.785C48.4135 26.8534 49.8372 26.6105 51.0165 26.1312C52.205 25.6487 53.1288 24.9306 53.7611 23.9982C54.393 23.0658 54.7135 21.9366 54.7135 20.642C54.7135 19.3473 54.3962 18.2218 53.7699 17.2948C53.1431 16.3678 52.223 15.6501 51.0345 15.1613C49.8543 14.6761 48.4186 14.4306 46.767 14.4306H43.3671C43.1614 14.4306 42.999 14.4251 42.88 14.4134C42.5009 14.3903 42.0333 14.3786 41.4904 14.3786V14.7684C41.9996 14.7684 42.3621 14.814 42.5678 14.904C42.7509 14.985 42.8833 15.1767 42.9603 15.4742C43.0456 15.8034 43.0885 16.3678 43.0885 17.1514V24.114C43.0885 24.8981 43.0451 25.4624 42.9603 25.7912C42.8828 26.0896 42.7504 26.2813 42.5678 26.3614C42.3607 26.4523 41.9973 26.5038 41.4904 26.5147V26.9049L41.49 26.9054ZM44.5311 23.8716V17.3952C44.5311 16.6373 44.5399 16.0938 44.5574 15.7795C44.5731 15.4996 44.6054 15.1894 44.6543 14.8556H46.7495C48.0086 14.8556 49.1265 15.0876 50.0715 15.5452C51.0105 16.0001 51.7475 16.6685 52.2627 17.5327C52.7792 18.3991 53.0407 19.4455 53.0407 20.6424C53.0407 22.4711 52.5034 23.9082 51.4445 24.9125C50.3842 25.9187 48.8581 26.4288 46.9091 26.4288H44.7221C44.651 26.0204 44.6017 25.6677 44.5749 25.3788C44.5459 25.0676 44.5316 24.5607 44.5316 23.872L44.5311 23.8716Z" fill="var(--fill-0, white)"/>
<path id="Vector_10" d="M78.2351 26.5151C77.9211 26.5151 77.654 26.4464 77.4419 26.3112C77.2251 26.1733 77.0222 25.9463 76.8391 25.6361C76.6481 25.3118 76.4152 24.8293 76.1477 24.2012L71.8092 14.1009H71.6045L71.5643 14.1669C71.4297 14.3912 71.1391 14.5757 70.6835 14.7227C70.618 14.7543 70.5557 14.8339 70.6004 14.9655L71.1248 16.1598L67.2738 24.0574C66.8915 24.8528 66.5133 25.471 66.1503 25.8947C65.8067 26.2963 65.4442 26.5047 65.0776 26.5151V26.9054C65.4096 26.9054 65.7352 26.8936 66.0498 26.8701C66.1512 26.8584 66.2758 26.8534 66.4234 26.8534C66.7342 26.8534 66.9809 26.8588 67.1797 26.871C67.8397 26.8941 68.4964 26.9058 69.1324 26.9058L69.1347 26.5156C68.5536 26.5052 68.11 26.3885 67.8157 26.1696C67.5307 25.9576 67.3919 25.6659 67.3919 25.2784C67.3919 24.9532 67.4947 24.5815 67.6976 24.1723L68.2801 22.964H74.0534L74.6364 24.3043C74.9117 24.9682 75.0515 25.4475 75.0515 25.7297C75.0515 26.0118 74.9472 26.1914 74.7333 26.3062C74.4934 26.4342 74.0913 26.5043 73.5415 26.5151V26.9054C74.225 26.9054 74.8117 26.8936 75.2876 26.8706C75.4361 26.8588 75.6349 26.8534 75.8969 26.8534H76.8709C76.9867 26.8534 77.1513 26.862 77.3649 26.8787C77.5858 26.8963 77.8782 26.9054 78.2347 26.9054V26.5151H78.2351ZM71.3393 16.6979L73.8667 22.5389H68.4997L71.3393 16.6979Z" fill="var(--fill-0, white)"/>
<path id="Vector_11" d="M157.218 14.4315C156.675 14.4315 156.207 14.4432 155.823 14.4667C155.709 14.4781 155.552 14.4835 155.358 14.4835H154.506L149.544 21.782L143.969 14.4835H143.405C143.211 14.4835 143.055 14.478 142.936 14.4663C142.557 14.4432 142.083 14.4315 141.528 14.4315L141.543 14.8213C142.054 14.833 142.415 14.8814 142.616 14.9664C142.793 15.0415 142.922 15.2301 142.999 15.5276C143.084 15.8564 143.127 16.4207 143.127 17.2048V24.2193C143.127 24.951 142.972 25.5352 142.666 25.9558C142.365 26.3673 141.93 26.5676 141.334 26.5676V26.9578C141.806 26.9578 142.297 26.9461 142.798 26.923C142.934 26.9113 143.115 26.9058 143.352 26.9058C143.589 26.9058 143.799 26.9113 143.966 26.9235C144.485 26.9465 145.035 26.9583 145.601 26.9583L145.603 26.568C144.923 26.5576 144.429 26.3288 144.093 25.8685C143.751 25.4023 143.578 24.7543 143.578 23.9417V16.4582L149.294 23.8463C149.365 23.9136 149.429 23.9172 149.472 23.9073L149.557 23.8671L149.585 23.8087C149.683 23.6075 149.933 23.3421 150.328 23.0214L150.429 22.9396L149.824 22.1492L154.177 15.7067V24.1678C154.177 24.9632 154.137 25.5343 154.057 25.864C153.985 26.1611 153.856 26.3523 153.674 26.4324C153.467 26.5228 153.104 26.5744 152.57 26.5879L152.558 26.9804C152.572 26.9804 152.586 26.9791 152.599 26.9759C153.19 26.9637 153.627 26.9465 153.929 26.9239L155.359 26.8891C155.553 26.8891 155.709 26.8945 155.829 26.9063C156.207 26.9293 156.675 26.9411 157.218 26.9411L157.221 26.5513C156.711 26.54 156.351 26.4889 156.151 26.3985C155.973 26.3184 155.843 26.1262 155.766 25.8273C155.68 25.499 155.637 24.9347 155.637 24.1501V17.2048C155.637 16.4207 155.681 15.8564 155.766 15.5276C155.843 15.2292 155.973 15.037 156.151 14.9565C156.35 14.8665 156.709 14.8213 157.218 14.8213V14.4315Z" fill="var(--fill-0, white)"/>
<path id="Vector_12" d="M170.113 13.3231C170.147 13.3448 170.184 13.3548 170.22 13.3548C170.248 13.3548 170.274 13.3494 170.296 13.3376C170.87 13.1382 171.389 12.8972 171.837 12.6213C172.288 12.3441 172.641 12.0638 172.886 11.7884C173.145 11.4967 173.277 11.2493 173.292 11.0228C173.292 10.7167 173.126 10.5412 172.836 10.5412C172.692 10.5412 172.566 10.595 172.47 10.6972C172.392 10.7795 172.283 10.9305 172.137 11.1585C171.883 11.5428 171.614 11.8901 171.335 12.1913C171.065 12.4843 170.66 12.7696 170.134 13.0396L170.101 13.0627C170.045 13.1169 170.038 13.1712 170.041 13.2069L170.059 13.2874L170.113 13.3227V13.3231Z" fill="var(--fill-0, white)"/>
<path id="Vector_13" d="M173.724 26.5676C173.215 26.5567 172.851 26.5052 172.644 26.4143C172.461 26.3343 172.329 26.1425 172.252 25.8441C172.166 25.5158 172.123 24.9514 172.123 24.1669V17.2044C172.123 16.4202 172.166 15.8559 172.252 15.5272C172.329 15.2287 172.461 15.037 172.644 14.9569C172.849 14.8665 173.212 14.8208 173.721 14.8208V14.431C173.178 14.431 172.71 14.4428 172.331 14.4658H172.326C172.212 14.4776 172.05 14.483 171.844 14.483H170.959C170.753 14.483 170.591 14.4776 170.472 14.4658C170.093 14.4428 169.625 14.431 169.082 14.431V14.8208C169.591 14.8208 169.954 14.8665 170.16 14.9565C170.343 15.0374 170.475 15.2292 170.552 15.5267C170.637 15.8559 170.68 16.4202 170.68 17.2039V24.1664C170.68 24.9505 170.637 25.5149 170.552 25.8436C170.475 26.1421 170.342 26.3338 170.16 26.4138C169.953 26.5047 169.589 26.5563 169.082 26.5671V26.9574C169.626 26.9574 170.093 26.9456 170.477 26.9221C170.588 26.9108 170.75 26.9054 170.959 26.9054H171.845C172.054 26.9054 172.216 26.9108 172.332 26.9226C172.71 26.9456 173.178 26.9574 173.721 26.9574L173.724 26.5671V26.5676Z" fill="var(--fill-0, white)"/>
<path id="Vector_14" d="M198.319 26.5676C198.005 26.5676 197.737 26.4989 197.525 26.3636C197.309 26.2257 197.106 25.9987 196.923 25.6885C196.732 25.3643 196.499 24.8818 196.231 24.2537L191.893 14.1534H191.688L191.648 14.2194C191.513 14.4437 191.223 14.6282 190.767 14.7751C190.701 14.8068 190.639 14.8864 190.684 15.018L191.208 16.2122L187.357 24.1099C186.975 24.9053 186.597 25.5235 186.234 25.9472C185.89 26.3487 185.528 26.5572 185.161 26.5676V26.9578C185.493 26.9578 185.819 26.9461 186.133 26.9226C186.235 26.9108 186.359 26.9058 186.507 26.9058C186.818 26.9058 187.064 26.9113 187.263 26.9235C187.923 26.9465 188.58 26.9583 189.216 26.9583L189.218 26.568C188.637 26.5576 188.193 26.441 187.899 26.2221C187.614 26.01 187.475 25.7184 187.475 25.3308C187.475 25.0057 187.578 24.634 187.781 24.2247L188.364 23.0165H194.137L194.72 24.3568C194.995 25.0206 195.135 25.4999 195.135 25.7821C195.135 26.0643 195.031 26.2438 194.817 26.3587C194.577 26.4866 194.175 26.5567 193.625 26.5676V26.9578C194.308 26.9578 194.895 26.9461 195.371 26.923C195.52 26.9113 195.718 26.9058 195.98 26.9058H196.954C197.07 26.9058 197.235 26.9144 197.448 26.9312C197.669 26.9488 197.962 26.9578 198.318 26.9578V26.5676H198.319ZM191.423 16.7503L193.95 22.5914H188.583L191.423 16.7503Z" fill="var(--fill-0, white)"/>
<g id="Group">
<path id="Vector_15" d="M203.847 25.4195C203.906 25.4072 203.991 25.4009 204.073 25.4009C204.198 25.4009 204.28 25.4235 204.336 25.4737C204.382 25.5135 204.408 25.5746 204.408 25.6433C204.408 25.7613 204.332 25.8395 204.236 25.8712V25.8753C204.306 25.8992 204.348 25.9625 204.37 26.0557C204.4 26.1805 204.422 26.2664 204.441 26.3012H204.319C204.304 26.2759 204.284 26.199 204.258 26.0878C204.231 25.9644 204.182 25.9182 204.075 25.9142H203.965V26.3012H203.847V25.4195H203.847ZM203.964 25.8264H204.085C204.21 25.8264 204.29 25.7591 204.29 25.6569C204.29 25.5415 204.205 25.4909 204.08 25.49C204.024 25.49 203.983 25.4954 203.964 25.5004V25.8264Z" fill="var(--fill-0, white)"/>
<path id="Vector_16" d="M204.084 26.724C203.58 26.724 203.169 26.3216 203.169 25.8264C203.169 25.3313 203.579 24.9288 204.084 24.9288C204.59 24.9288 205 25.3313 205 25.8264C205 26.3216 204.59 26.724 204.084 26.724ZM204.084 25.0396C203.642 25.0396 203.282 25.3928 203.282 25.8264C203.282 26.2601 203.642 26.6133 204.084 26.6133C204.527 26.6133 204.887 26.2601 204.887 25.8264C204.887 25.3928 204.527 25.0396 204.084 25.0396Z" fill="var(--fill-0, white)"/>
</g>
<g id="Group_2">
<path id="Vector_17" d="M33.4065 48.0002C33.1146 48.0002 32.8577 47.9577 32.6372 47.8727C32.4159 47.7877 32.2028 47.652 31.998 47.4662C31.9704 47.4431 31.9478 47.4142 31.9298 47.3793C31.9122 47.3445 31.903 47.3079 31.903 47.269C31.903 47.2071 31.9256 47.1523 31.9713 47.1035C32.0165 47.0551 32.0727 47.0311 32.1401 47.0311C32.1954 47.0311 32.2448 47.0524 32.2881 47.0949C32.4422 47.2419 32.6091 47.354 32.7885 47.4318C32.9684 47.5091 33.1704 47.548 33.3955 47.548C33.5689 47.548 33.7252 47.5209 33.8636 47.4666C34.0015 47.4123 34.1122 47.3368 34.1952 47.2405C34.2782 47.1437 34.3192 47.0316 34.3192 46.9036C34.3192 46.749 34.275 46.621 34.186 46.5206C34.0974 46.4198 33.9747 46.3366 33.8188 46.271C33.663 46.2054 33.4822 46.1471 33.2774 46.0969C33.0957 46.0544 32.9287 46.0033 32.777 45.9432C32.6248 45.883 32.4929 45.8075 32.3804 45.7171C32.2678 45.6262 32.1811 45.5158 32.1198 45.386C32.0584 45.2563 32.028 45.1025 32.028 44.9248C32.028 44.7041 32.0875 44.5119 32.2056 44.3473C32.3236 44.1827 32.4887 44.0539 32.6995 43.9612C32.9107 43.868 33.1524 43.8219 33.4245 43.8219C33.6653 43.8219 33.8931 43.8603 34.1085 43.9377C34.3234 44.015 34.4963 44.1217 34.6264 44.2569C34.7053 44.3306 34.7449 44.4039 34.7449 44.4776C34.7449 44.5318 34.72 44.5834 34.6707 44.6313C34.6213 44.6802 34.5651 44.7041 34.5023 44.7041C34.459 44.7041 34.4193 44.6906 34.3838 44.6634C34.3165 44.5902 34.2307 44.5242 34.1265 44.4663C34.0218 44.4079 33.9092 44.3618 33.7889 44.327C33.6685 44.2922 33.5472 44.275 33.425 44.275C33.2433 44.275 33.0837 44.3012 32.9453 44.3532C32.807 44.4052 32.6995 44.478 32.623 44.5707C32.5459 44.6634 32.5077 44.7756 32.5077 44.9076C32.5077 45.0546 32.551 45.1758 32.6382 45.2703C32.7249 45.3652 32.8411 45.4426 32.9873 45.5027C33.133 45.5629 33.2954 45.6158 33.4729 45.6623C33.6662 45.7089 33.8447 45.7618 34.0089 45.822C34.1726 45.8817 34.3137 45.9563 34.4322 46.0453C34.5508 46.1344 34.6425 46.2475 34.7076 46.385C34.7726 46.5224 34.8053 46.6915 34.8053 46.8928C34.8053 47.1058 34.744 47.2952 34.6218 47.4616C34.4996 47.628 34.3326 47.7596 34.1214 47.8564C33.9102 47.9532 33.6726 48.0016 33.4079 48.0016L33.4065 48.0002Z" fill="var(--fill-0, white)"/>
<path id="Vector_18" d="M40.5814 44.4828L39.1904 47.8028C39.1748 47.8494 39.1471 47.887 39.1074 47.9159C39.0678 47.9448 39.0263 47.9593 38.9834 47.9593C38.9082 47.9593 38.8528 47.939 38.8173 47.8983C38.7818 47.8576 38.762 47.8101 38.7583 47.7563C38.7583 47.7291 38.762 47.7002 38.7698 47.6694L40.3033 44.0184C40.3268 43.9641 40.3596 43.9239 40.4011 43.8967C40.4426 43.8696 40.4887 43.8583 40.5404 43.8619C40.5916 43.8619 40.6377 43.8755 40.6796 43.9026C40.7212 43.9298 40.7498 43.9686 40.7654 44.0188L42.2925 47.6351C42.3045 47.6663 42.31 47.697 42.31 47.7278C42.31 47.7974 42.2865 47.8535 42.239 47.896C42.1915 47.9385 42.1384 47.9598 42.0794 47.9598C42.0282 47.9598 41.9825 47.9453 41.9433 47.9163C41.9041 47.8874 41.8742 47.8481 41.8548 47.7974L40.4458 44.4774L40.5819 44.4833L40.5814 44.4828ZM39.4865 46.8564L39.6876 46.4037H41.4457L41.5343 46.8564H39.4861H39.4865Z" fill="var(--fill-0, white)"/>
<path id="Vector_19" d="M48.2894 43.8787C48.6404 43.8787 48.9102 43.9668 49.0975 44.1427C49.2847 44.3187 49.3788 44.5674 49.3788 44.8884C49.3788 45.0584 49.3396 45.2154 49.2603 45.3583C49.1814 45.5016 49.0661 45.6156 48.9139 45.701C48.7617 45.786 48.5735 45.8326 48.3485 45.8403L48.3425 45.6775C48.4808 45.6775 48.6224 45.697 48.7686 45.7358C48.9144 45.7743 49.0486 45.8367 49.1713 45.9217C49.2935 46.0067 49.3945 46.1189 49.4733 46.2586C49.5522 46.3979 49.5914 46.5701 49.5914 46.775C49.5914 46.9957 49.554 47.1815 49.4789 47.3321C49.4037 47.4831 49.3041 47.603 49.18 47.6921C49.0555 47.7811 48.9176 47.8454 48.7654 47.8838C48.6132 47.9222 48.4587 47.9417 48.3005 47.9417H46.7495C46.6822 47.9417 46.6254 47.9186 46.5779 47.872C46.5304 47.8255 46.5069 47.7694 46.5069 47.7038V44.1165C46.5069 44.0505 46.5304 43.9949 46.5779 43.9483C46.6254 43.9017 46.6826 43.8787 46.7495 43.8787H48.2885H48.2894ZM48.2244 44.3372H46.952L47.023 44.2386V45.678L46.958 45.6024H48.2309C48.4043 45.6024 48.5532 45.5473 48.6778 45.4369C48.8023 45.3266 48.8641 45.1652 48.8641 44.9522C48.8641 44.755 48.8078 44.6031 48.6958 44.4968C48.5832 44.3901 48.4264 44.3372 48.2249 44.3372H48.2244ZM48.2659 46.0673H46.981L47.0225 46.0266V47.5415L46.975 47.4895H48.2894C48.5182 47.4895 48.7068 47.4316 48.8549 47.3154C49.0029 47.1992 49.0767 47.0192 49.0767 46.7754C49.0767 46.586 49.037 46.4408 48.9582 46.34C48.8793 46.2396 48.7774 46.1686 48.6533 46.1284C48.5293 46.0877 48.3997 46.0673 48.2655 46.0673H48.2659Z" fill="var(--fill-0, white)"/>
<path id="Vector_20" d="M57.6666 45.9104C57.6666 46.2084 57.6172 46.4842 57.5185 46.7375C57.4198 46.9911 57.2805 47.2123 57.1011 47.4022C56.9213 47.5917 56.7105 47.7391 56.4674 47.8435C56.2248 47.948 55.9573 48 55.6654 48C55.3735 48 55.112 47.948 54.8694 47.8435C54.6263 47.7391 54.4156 47.5921 54.2357 47.4022C54.0558 47.2127 53.9179 46.9911 53.8211 46.7375C53.7242 46.4838 53.6758 46.2084 53.6758 45.9104C53.6758 45.6124 53.7242 45.3365 53.8211 45.0833C53.9175 44.8296 54.0558 44.6085 54.2357 44.4186C54.4151 44.2291 54.6263 44.0817 54.8694 43.9772C55.112 43.8728 55.3776 43.8208 55.6654 43.8208C55.9532 43.8208 56.2248 43.8728 56.4674 43.9772C56.71 44.0817 56.9213 44.2287 57.1011 44.4186C57.2805 44.6081 57.4198 44.8296 57.5185 45.0833C57.6172 45.337 57.6666 45.6128 57.6666 45.9104ZM57.1519 45.9104C57.1519 45.597 57.0887 45.3176 56.9623 45.0716C56.8359 44.826 56.6611 44.6334 56.4384 44.4941C56.2152 44.3548 55.9578 44.2852 55.6659 44.2852C55.3739 44.2852 55.1221 44.3548 54.8989 44.4941C54.6757 44.6334 54.5013 44.8251 54.375 45.0688C54.2486 45.3126 54.1854 45.5934 54.1854 45.9104C54.1854 46.2274 54.2486 46.5032 54.375 46.7492C54.5013 46.9948 54.6757 47.1874 54.8989 47.3267C55.1221 47.466 55.3776 47.5356 55.6659 47.5356C55.9541 47.5356 56.2152 47.466 56.4384 47.3267C56.6616 47.1874 56.8359 46.9948 56.9623 46.7492C57.0887 46.5032 57.1519 46.2238 57.1519 45.9104Z" fill="var(--fill-0, white)"/>
<path id="Vector_21" d="M62.2726 47.9421C62.1974 47.9421 62.1323 47.9191 62.0775 47.8725C62.0221 47.8259 61.9944 47.7698 61.9944 47.7043V44.117C61.9944 44.0509 62.018 43.9953 62.0655 43.9488C62.113 43.9022 62.1702 43.8791 62.237 43.8791H63.8711C64.092 43.8791 64.2912 43.9284 64.4688 44.027C64.6463 44.1256 64.7875 44.2621 64.8922 44.4362C64.9964 44.6103 65.049 44.8079 65.049 45.0282C65.049 45.1905 65.0172 45.3429 64.954 45.484C64.8908 45.6251 64.8041 45.7481 64.6934 45.8525C64.5832 45.957 64.4563 46.0343 64.3143 46.0845L64.1842 45.9977C64.3184 46.0248 64.4388 46.0782 64.5453 46.1573C64.6519 46.2364 64.7386 46.3373 64.8059 46.4589C64.8728 46.581 64.9083 46.723 64.9125 46.8858C64.9203 47.0287 64.93 47.1431 64.942 47.2281C64.9535 47.3131 64.9715 47.38 64.995 47.4284C65.0185 47.4768 65.0522 47.5143 65.0956 47.5415C65.1509 47.5763 65.1873 47.6229 65.2053 47.6808C65.2228 47.7386 65.2122 47.7947 65.1726 47.849C65.1491 47.8874 65.1154 47.9136 65.072 47.9272C65.0287 47.9408 64.9853 47.9444 64.942 47.939C64.8986 47.9331 64.859 47.9204 64.8234 47.9014C64.764 47.8666 64.704 47.8155 64.6427 47.7477C64.5813 47.6798 64.5324 47.5822 64.4946 47.4542C64.4568 47.3267 64.4383 47.1521 64.4383 46.9319C64.4383 46.8121 64.4176 46.7108 64.3765 46.6271C64.335 46.5439 64.2815 46.4784 64.217 46.43C64.1519 46.3816 64.0777 46.3468 63.9951 46.3255C63.9121 46.3043 63.8273 46.2934 63.7406 46.2934H62.4206L62.4916 46.1948V47.7038C62.4916 47.7698 62.4718 47.8255 62.4321 47.872C62.3929 47.9186 62.3394 47.9417 62.2726 47.9417V47.9421ZM62.4206 45.8756H63.8711C63.9854 45.8679 64.0929 45.829 64.1934 45.7594C64.294 45.6897 64.3761 45.5929 64.4393 45.469C64.5024 45.3451 64.5343 45.2018 64.5343 45.0395C64.5343 44.8382 64.4683 44.67 64.336 44.5344C64.2041 44.3987 64.0389 44.3313 63.842 44.3313H62.445L62.4925 44.2151V45.9796L62.4215 45.8751L62.4206 45.8756Z" fill="var(--fill-0, white)"/>
<path id="Vector_22" d="M69.791 43.8787H71.8987C71.966 43.8787 72.0228 43.9013 72.0703 43.9456C72.1178 43.9904 72.1413 44.0451 72.1413 44.1111C72.1413 44.1771 72.1178 44.23 72.0703 44.2707C72.0228 44.3114 71.9656 44.3318 71.8987 44.3318H69.9926L70.0456 44.2332V45.696L69.9861 45.6323H71.6321C71.699 45.6323 71.7562 45.6535 71.8037 45.696C71.8512 45.7386 71.8752 45.7946 71.8752 45.8643C71.8752 45.9303 71.8512 45.9832 71.8037 46.0239C71.7567 46.0646 71.699 46.0845 71.6321 46.0845H70.0041L70.0456 46.0266V47.5302L70.0101 47.4895H71.8987C71.966 47.4895 72.0228 47.513 72.0703 47.5591C72.1178 47.6057 72.1413 47.6577 72.1413 47.716C72.1413 47.782 72.1178 47.8359 72.0703 47.8784C72.0228 47.9209 71.9656 47.9421 71.8987 47.9421H69.791C69.7237 47.9421 69.667 47.9191 69.6195 47.8725C69.572 47.8259 69.5484 47.7698 69.5484 47.7043V44.117C69.5484 44.0509 69.572 43.9953 69.6195 43.9488C69.667 43.9022 69.7242 43.8791 69.791 43.8791V43.8787Z" fill="var(--fill-0, white)"/>
<path id="Vector_23" d="M77.6881 48C77.3962 48 77.1393 47.9575 76.9189 47.8725C76.6975 47.7875 76.4844 47.6518 76.2796 47.466C76.252 47.4429 76.2294 47.414 76.2114 47.3791C76.1939 47.3443 76.1846 47.3077 76.1846 47.2688C76.1846 47.2068 76.2072 47.1521 76.2529 47.1033C76.2981 47.0549 76.3544 47.0309 76.4217 47.0309C76.477 47.0309 76.5264 47.0522 76.5697 47.0947C76.7238 47.2417 76.8907 47.3538 77.0701 47.4316C77.25 47.5089 77.452 47.5478 77.6771 47.5478C77.8505 47.5478 78.0068 47.5207 78.1452 47.4664C78.2831 47.4121 78.3938 47.3366 78.4768 47.2403C78.5598 47.1435 78.6009 47.0314 78.6009 46.9034C78.6009 46.7488 78.5566 46.6208 78.4676 46.5204C78.379 46.4196 78.2563 46.3364 78.1005 46.2708C77.9446 46.2052 77.7638 46.1469 77.559 46.0967C77.3773 46.0542 77.2103 46.0031 77.0586 45.9429C76.9064 45.8828 76.7745 45.8073 76.662 45.7168C76.5494 45.626 76.4627 45.5156 76.4014 45.3858C76.3401 45.2561 76.3096 45.1023 76.3096 44.9246C76.3096 44.7039 76.3691 44.5117 76.4872 44.3471C76.6053 44.1825 76.7704 44.0537 76.9811 43.961C77.1924 43.8678 77.434 43.8217 77.7061 43.8217C77.9469 43.8217 78.1747 43.8601 78.3901 43.9374C78.605 44.0148 78.778 44.1215 78.908 44.2567C78.9869 44.3304 79.0266 44.4037 79.0266 44.4774C79.0266 44.5316 79.0016 44.5832 78.9523 44.6311C78.9029 44.68 78.8467 44.7039 78.784 44.7039C78.7406 44.7039 78.7009 44.6904 78.6654 44.6632C78.5981 44.59 78.5123 44.524 78.4081 44.4661C78.3034 44.4077 78.1909 44.3616 78.0705 44.3268C77.9501 44.292 77.8288 44.2748 77.7066 44.2748C77.5249 44.2748 77.3653 44.301 77.2269 44.353C77.0886 44.405 76.9811 44.4778 76.9046 44.5705C76.8276 44.6632 76.7893 44.7754 76.7893 44.9074C76.7893 45.0544 76.8326 45.1756 76.9198 45.2701C77.0065 45.365 77.1227 45.4424 77.2689 45.5025C77.4147 45.5627 77.577 45.6156 77.7546 45.6621C77.9478 45.7087 78.1263 45.7616 78.2905 45.8218C78.4542 45.8815 78.5953 45.9561 78.7139 46.0451C78.8324 46.1342 78.9242 46.2473 78.9892 46.3847C79.0542 46.5222 79.087 46.6913 79.087 46.8926C79.087 47.1056 79.0256 47.295 78.9034 47.4614C78.7812 47.6278 78.6142 47.7594 78.403 47.8562C78.1918 47.953 77.9543 48.0014 77.6895 48.0014L77.6881 48Z" fill="var(--fill-0, white)"/>
<path id="Vector_24" d="M90.2328 43.8787C90.4458 43.8787 90.6405 43.9307 90.8157 44.0351C90.9914 44.1396 91.1293 44.2829 91.2303 44.4647C91.3309 44.6465 91.3812 44.8536 91.3812 45.0856C91.3812 45.3176 91.3309 45.521 91.2303 45.7069C91.1298 45.8928 90.9914 46.0406 90.8157 46.151C90.64 46.2613 90.4454 46.3165 90.2328 46.3165H89.0314L89.0729 46.2409V47.7038C89.0729 47.7698 89.0512 47.8255 89.0078 47.872C88.9645 47.9186 88.9091 47.9417 88.8423 47.9417C88.7708 47.9417 88.714 47.9186 88.6707 47.872C88.6273 47.8255 88.6057 47.7694 88.6057 47.7038V44.1165C88.6057 44.0505 88.6292 43.9949 88.6767 43.9483C88.7242 43.9017 88.7814 43.8787 88.8483 43.8787H90.2337H90.2328ZM90.2328 45.8638C90.3591 45.8638 90.4726 45.829 90.5731 45.7594C90.6737 45.6897 90.7535 45.5961 90.813 45.4776C90.872 45.3601 90.9015 45.2294 90.9015 45.086C90.9015 44.9427 90.872 44.8143 90.813 44.7003C90.7535 44.5859 90.6737 44.4964 90.5731 44.4303C90.4726 44.3643 90.3587 44.3318 90.2328 44.3318H89.0314L89.0729 44.2621V45.9221L89.0314 45.8638H90.2328Z" fill="var(--fill-0, white)"/>
<path id="Vector_25" d="M96.9045 44.4828L95.5135 47.8028C95.4978 47.8494 95.4702 47.887 95.4305 47.9159C95.3908 47.9448 95.3493 47.9593 95.3064 47.9593C95.2313 47.9593 95.1759 47.939 95.1404 47.8983C95.1049 47.8576 95.0851 47.8101 95.0814 47.7563C95.0814 47.7291 95.0851 47.7002 95.0929 47.6694L96.6264 44.0184C96.6499 43.9641 96.6826 43.9239 96.7242 43.8967C96.7657 43.8696 96.8118 43.8583 96.8634 43.8619C96.9146 43.8619 96.9608 43.8755 97.0027 43.9026C97.0442 43.9298 97.0728 43.9686 97.0885 44.0188L98.6155 47.6351C98.6275 47.6663 98.6331 47.697 98.6331 47.7278C98.6331 47.7974 98.6095 47.8535 98.562 47.896C98.5145 47.9385 98.4615 47.9598 98.4025 47.9598C98.3513 47.9598 98.3056 47.9453 98.2664 47.9163C98.2272 47.8874 98.1972 47.8481 98.1779 47.7974L96.7689 44.4774L96.9049 44.4833L96.9045 44.4828ZM95.8096 46.8564L96.0107 46.4037H97.7688L97.8573 46.8564H95.8091H95.8096Z" fill="var(--fill-0, white)"/>
<path id="Vector_26" d="M103.109 47.9421C103.034 47.9421 102.969 47.9191 102.914 47.8725C102.859 47.8259 102.831 47.7698 102.831 47.7043V44.117C102.831 44.0509 102.854 43.9953 102.902 43.9488C102.949 43.9022 103.007 43.8791 103.073 43.8791H104.708C104.928 43.8791 105.128 43.9284 105.305 44.027C105.483 44.1256 105.624 44.2621 105.729 44.4362C105.833 44.6103 105.885 44.8079 105.885 45.0282C105.885 45.1905 105.854 45.3429 105.79 45.484C105.727 45.6251 105.641 45.7481 105.53 45.8525C105.42 45.957 105.293 46.0343 105.151 46.0845L105.021 45.9977C105.155 46.0248 105.275 46.0782 105.382 46.1573C105.488 46.2364 105.575 46.3373 105.642 46.4589C105.709 46.581 105.745 46.723 105.749 46.8858C105.757 47.0287 105.766 47.1431 105.778 47.2281C105.79 47.3131 105.808 47.38 105.831 47.4284C105.855 47.4768 105.889 47.5143 105.932 47.5415C105.987 47.5763 106.024 47.6229 106.042 47.6808C106.059 47.7386 106.049 47.7947 106.009 47.849C105.986 47.8874 105.952 47.9136 105.908 47.9272C105.865 47.9408 105.822 47.9444 105.778 47.939C105.735 47.9331 105.695 47.9204 105.66 47.9014C105.6 47.8666 105.54 47.8155 105.479 47.7477C105.418 47.6798 105.369 47.5822 105.331 47.4542C105.293 47.3267 105.275 47.1521 105.275 46.9319C105.275 46.8121 105.254 46.7108 105.213 46.6271C105.171 46.5439 105.118 46.4784 105.053 46.43C104.988 46.3816 104.914 46.3468 104.832 46.3255C104.749 46.3043 104.664 46.2934 104.577 46.2934H103.257L103.328 46.1948V47.7038C103.328 47.7698 103.308 47.8255 103.269 47.872C103.229 47.9186 103.176 47.9417 103.109 47.9417V47.9421ZM103.257 45.8756H104.708C104.822 45.8679 104.929 45.829 105.03 45.7594C105.13 45.6897 105.213 45.5929 105.276 45.469C105.339 45.3451 105.371 45.2018 105.371 45.0395C105.371 44.8382 105.305 44.67 105.172 44.5344C105.041 44.3987 104.875 44.3313 104.678 44.3313H103.281L103.329 44.2151V45.9796L103.258 45.8751L103.257 45.8756Z" fill="var(--fill-0, white)"/>
<path id="Vector_27" d="M111.823 44.4828L110.432 47.8028C110.417 47.8494 110.389 47.887 110.349 47.9159C110.31 47.9448 110.268 47.9593 110.225 47.9593C110.15 47.9593 110.095 47.939 110.059 47.8983C110.024 47.8576 110.004 47.8101 110 47.7563C110 47.7291 110.004 47.7002 110.012 47.6694L111.545 44.0184C111.569 43.9641 111.602 43.9239 111.643 43.8967C111.685 43.8696 111.731 43.8583 111.782 43.8619C111.834 43.8619 111.88 43.8755 111.922 43.9026C111.963 43.9298 111.992 43.9686 112.007 44.0188L113.534 47.6351C113.546 47.6663 113.552 47.697 113.552 47.7278C113.552 47.7974 113.528 47.8535 113.481 47.896C113.433 47.9385 113.38 47.9598 113.321 47.9598C113.27 47.9598 113.224 47.9453 113.185 47.9163C113.146 47.8874 113.116 47.8481 113.097 47.7974L111.688 44.4774L111.824 44.4833L111.823 44.4828ZM110.728 46.8564L110.929 46.4037H112.687L112.776 46.8564H110.728H110.728Z" fill="var(--fill-0, white)"/>
<path id="Vector_28" d="M124.142 48C123.851 48 123.594 47.9575 123.373 47.8725C123.152 47.7875 122.939 47.6518 122.734 47.466C122.706 47.4429 122.684 47.414 122.666 47.3791C122.648 47.3443 122.639 47.3077 122.639 47.2688C122.639 47.2068 122.662 47.1521 122.707 47.1033C122.752 47.0549 122.809 47.0309 122.876 47.0309C122.931 47.0309 122.981 47.0522 123.024 47.0947C123.178 47.2417 123.345 47.3538 123.524 47.4316C123.704 47.5089 123.906 47.5478 124.131 47.5478C124.305 47.5478 124.461 47.5207 124.6 47.4664C124.737 47.4121 124.848 47.3366 124.931 47.2403C125.014 47.1435 125.055 47.0314 125.055 46.9034C125.055 46.7488 125.011 46.6208 124.922 46.5204C124.833 46.4196 124.711 46.3364 124.555 46.2708C124.399 46.2052 124.218 46.1469 124.013 46.0967C123.832 46.0542 123.665 46.0031 123.513 45.9429C123.361 45.8828 123.229 45.8073 123.116 45.7168C123.004 45.626 122.917 45.5156 122.856 45.3858C122.794 45.2561 122.764 45.1023 122.764 44.9246C122.764 44.7039 122.823 44.5117 122.942 44.3471C123.06 44.1825 123.225 44.0537 123.435 43.961C123.647 43.8678 123.888 43.8217 124.16 43.8217C124.401 43.8217 124.629 43.8601 124.844 43.9374C125.059 44.0148 125.232 44.1215 125.362 44.2567C125.441 44.3304 125.481 44.4037 125.481 44.4774C125.481 44.5316 125.456 44.5832 125.407 44.6311C125.357 44.68 125.301 44.7039 125.238 44.7039C125.195 44.7039 125.155 44.6904 125.12 44.6632C125.052 44.59 124.967 44.524 124.862 44.4661C124.758 44.4077 124.645 44.3616 124.525 44.3268C124.404 44.292 124.283 44.2748 124.161 44.2748C123.979 44.2748 123.82 44.301 123.681 44.353C123.543 44.405 123.435 44.4778 123.359 44.5705C123.282 44.6632 123.244 44.7754 123.244 44.9074C123.244 45.0544 123.287 45.1756 123.374 45.2701C123.461 45.365 123.577 45.4424 123.723 45.5025C123.869 45.5627 124.031 45.6156 124.209 45.6621C124.402 45.7087 124.581 45.7616 124.745 45.8218C124.909 45.8815 125.05 45.9561 125.168 46.0451C125.287 46.1342 125.378 46.2473 125.444 46.3847C125.509 46.5222 125.541 46.6913 125.541 46.8926C125.541 47.1056 125.48 47.295 125.358 47.4614C125.236 47.6278 125.069 47.7594 124.857 47.8562C124.646 47.953 124.409 48.0014 124.144 48.0014L124.142 48Z" fill="var(--fill-0, white)"/>
<path id="Vector_29" d="M130.377 47.7043C130.377 47.7703 130.352 47.8259 130.302 47.8725C130.253 47.9191 130.195 47.9421 130.127 47.9421C130.053 47.9421 129.992 47.9191 129.947 47.8725C129.901 47.8259 129.879 47.7698 129.879 47.7043V44.117C129.879 44.0509 129.902 43.9953 129.95 43.9488C129.997 43.9022 130.058 43.8791 130.133 43.8791C130.2 43.8791 130.258 43.9022 130.305 43.9488C130.352 43.9953 130.376 44.0514 130.376 44.117V47.7043H130.377Z" fill="var(--fill-0, white)"/>
<path id="Vector_30" d="M135.207 43.8787H137.315C137.382 43.8787 137.439 43.9013 137.486 43.9456C137.534 43.9904 137.557 44.0451 137.557 44.1111C137.557 44.1771 137.534 44.23 137.486 44.2707C137.439 44.3114 137.382 44.3318 137.315 44.3318H135.409L135.462 44.2332V45.696L135.402 45.6323H137.048C137.115 45.6323 137.172 45.6535 137.22 45.696C137.267 45.7386 137.291 45.7946 137.291 45.8643C137.291 45.9303 137.267 45.9832 137.22 46.0239C137.173 46.0646 137.115 46.0845 137.048 46.0845H135.42L135.462 46.0266V47.5302L135.426 47.4895H137.315C137.382 47.4895 137.439 47.513 137.486 47.5591C137.534 47.6057 137.557 47.6577 137.557 47.716C137.557 47.782 137.534 47.8359 137.486 47.8784C137.439 47.9209 137.382 47.9421 137.315 47.9421H135.207C135.14 47.9421 135.083 47.9191 135.036 47.8725C134.988 47.8259 134.965 47.7698 134.965 47.7043V44.117C134.965 44.0509 134.988 43.9953 135.036 43.9488C135.083 43.9022 135.14 43.8791 135.207 43.8791V43.8787Z" fill="var(--fill-0, white)"/>
<path id="Vector_31" d="M142.139 43.8732C142.175 43.8732 142.214 43.8827 142.255 43.9022C142.296 43.9216 142.329 43.9488 142.352 43.9836L143.921 46.3052L143.708 46.2993L145.294 43.9831C145.35 43.9099 145.417 43.8728 145.496 43.8728C145.559 43.8764 145.615 43.9008 145.664 43.9451C145.714 43.9899 145.739 44.0446 145.739 44.1106V47.7034C145.739 47.7694 145.715 47.825 145.668 47.8716C145.62 47.9182 145.561 47.9412 145.49 47.9412C145.415 47.9412 145.355 47.9182 145.31 47.8716C145.264 47.825 145.241 47.7689 145.241 47.7034V44.5574L145.389 44.5805L143.993 46.6647C143.969 46.6959 143.94 46.7207 143.907 46.7402C143.873 46.7596 143.837 46.7673 143.797 46.7632C143.761 46.7673 143.726 46.7596 143.69 46.7402C143.655 46.7207 143.627 46.6959 143.607 46.6647L142.228 44.5868L142.352 44.4303V47.7038C142.352 47.7698 142.331 47.8255 142.287 47.872C142.244 47.9186 142.189 47.9417 142.121 47.9417C142.054 47.9417 141.999 47.9186 141.956 47.872C141.912 47.8255 141.891 47.7694 141.891 47.7038V44.1111C141.891 44.0491 141.914 43.994 141.962 43.9456C142.009 43.8972 142.068 43.8732 142.139 43.8732Z" fill="var(--fill-0, white)"/>
<path id="Vector_32" d="M151.949 43.8787C152.162 43.8787 152.356 43.9307 152.532 44.0351C152.707 44.1396 152.845 44.2829 152.946 44.4647C153.047 44.6465 153.097 44.8536 153.097 45.0856C153.097 45.3176 153.047 45.521 152.946 45.7069C152.846 45.8928 152.707 46.0406 152.532 46.151C152.356 46.2613 152.161 46.3165 151.949 46.3165H150.747L150.789 46.2409V47.7038C150.789 47.7698 150.767 47.8255 150.724 47.872C150.68 47.9186 150.625 47.9417 150.558 47.9417C150.487 47.9417 150.43 47.9186 150.387 47.872C150.343 47.8255 150.322 47.7694 150.322 47.7038V44.1165C150.322 44.0505 150.345 43.9949 150.393 43.9483C150.44 43.9017 150.497 43.8787 150.564 43.8787H151.95H151.949ZM151.949 45.8638C152.075 45.8638 152.188 45.829 152.289 45.7594C152.39 45.6897 152.469 45.5961 152.529 45.4776C152.588 45.3601 152.617 45.2294 152.617 45.086C152.617 44.9427 152.588 44.8143 152.529 44.7003C152.469 44.5859 152.39 44.4964 152.289 44.4303C152.188 44.3643 152.075 44.3318 151.949 44.3318H150.747L150.789 44.2621V45.9221L150.747 45.8638H151.949Z" fill="var(--fill-0, white)"/>
<path id="Vector_33" d="M157.697 47.9421C157.622 47.9421 157.557 47.9191 157.502 47.8725C157.447 47.8259 157.419 47.7698 157.419 47.7043V44.117C157.419 44.0509 157.442 43.9953 157.49 43.9488C157.537 43.9022 157.595 43.8791 157.662 43.8791H159.296C159.516 43.8791 159.716 43.9284 159.893 44.027C160.071 44.1256 160.212 44.2621 160.317 44.4362C160.421 44.6103 160.473 44.8079 160.473 45.0282C160.473 45.1905 160.442 45.3429 160.378 45.484C160.315 45.6251 160.229 45.7481 160.118 45.8525C160.008 45.957 159.881 46.0343 159.739 46.0845L159.609 45.9977C159.743 46.0248 159.863 46.0782 159.97 46.1573C160.076 46.2364 160.163 46.3373 160.23 46.4589C160.297 46.581 160.333 46.723 160.337 46.8858C160.345 47.0287 160.354 47.1431 160.366 47.2281C160.378 47.3131 160.396 47.38 160.42 47.4284C160.443 47.4768 160.477 47.5143 160.52 47.5415C160.575 47.5763 160.612 47.6229 160.63 47.6808C160.647 47.7386 160.637 47.7947 160.597 47.849C160.574 47.8874 160.54 47.9136 160.497 47.9272C160.453 47.9408 160.41 47.9444 160.366 47.939C160.323 47.9331 160.283 47.9204 160.248 47.9014C160.188 47.8666 160.128 47.8155 160.067 47.7477C160.006 47.6798 159.957 47.5822 159.919 47.4542C159.881 47.3267 159.863 47.1521 159.863 46.9319C159.863 46.8121 159.842 46.7108 159.801 46.6271C159.76 46.5439 159.706 46.4784 159.641 46.43C159.576 46.3816 159.502 46.3468 159.42 46.3255C159.337 46.3043 159.252 46.2934 159.165 46.2934H157.845L157.916 46.1948V47.7038C157.916 47.7698 157.896 47.8255 157.857 47.872C157.817 47.9186 157.764 47.9417 157.697 47.9417V47.9421ZM157.845 45.8756H159.296C159.41 45.8679 159.517 45.829 159.618 45.7594C159.718 45.6897 159.801 45.5929 159.864 45.469C159.927 45.3451 159.959 45.2018 159.959 45.0395C159.959 44.8382 159.893 44.67 159.76 44.5344C159.629 44.3987 159.463 44.3313 159.267 44.3313H157.87L157.917 44.2151V45.9796L157.846 45.8751L157.845 45.8756Z" fill="var(--fill-0, white)"/>
<path id="Vector_34" d="M165.216 43.8787H167.323C167.391 43.8787 167.447 43.9013 167.495 43.9456C167.542 43.9904 167.566 44.0451 167.566 44.1111C167.566 44.1771 167.542 44.23 167.495 44.2707C167.447 44.3114 167.39 44.3318 167.323 44.3318H165.417L165.47 44.2332V45.696L165.411 45.6323H167.057C167.124 45.6323 167.181 45.6535 167.228 45.696C167.276 45.7386 167.3 45.7946 167.3 45.8643C167.3 45.9303 167.276 45.9832 167.228 46.0239C167.181 46.0646 167.124 46.0845 167.057 46.0845H165.429L165.47 46.0266V47.5302L165.435 47.4895H167.323C167.391 47.4895 167.447 47.513 167.495 47.5591C167.542 47.6057 167.566 47.6577 167.566 47.716C167.566 47.782 167.542 47.8359 167.495 47.8784C167.447 47.9209 167.39 47.9421 167.323 47.9421H165.216C165.148 47.9421 165.091 47.9191 165.044 47.8725C164.996 47.8259 164.973 47.7698 164.973 47.7043V44.117C164.973 44.0509 164.996 43.9953 165.044 43.9488C165.091 43.9022 165.149 43.8791 165.216 43.8791V43.8787Z" fill="var(--fill-0, white)"/>
</g>
</g>
<defs>
<clipPath id="clip0_2_916">
<rect width="205" height="48" fill="white"/>
</clipPath>
</defs>
</svg>
