<svg preserveAspectRatio="none" width="100%" height="100%" overflow="visible" style="display: block;" viewBox="0 0 19 21" fill="none" xmlns="http://www.w3.org/2000/svg">
<path id="Vector" d="M9.5 0C12.0196 0 14.4359 0.98741 16.2175 2.74501C17.9991 4.50261 19 6.88643 19 9.37205C19 12.5731 17.2309 15.1931 15.3668 17.0728C14.4353 18.0015 13.419 18.8437 12.331 19.5886L11.8813 19.8906L11.6702 20.0291L11.2723 20.279L10.9176 20.4925L10.4785 20.7445C10.1803 20.912 9.84311 21 9.5 21C9.15689 21 8.81969 20.912 8.5215 20.7445L8.08239 20.4925L7.5335 20.1593L7.33083 20.0291L6.89806 19.7448C5.72425 18.961 4.63079 18.0661 3.63322 17.0728C1.76911 15.1921 0 12.5731 0 9.37205C0 6.88643 1.00089 4.50261 2.78249 2.74501C4.56408 0.98741 6.98044 0 9.5 0ZM9.5 6.24804C9.08415 6.24804 8.67237 6.32884 8.28817 6.48584C7.90397 6.64283 7.55488 6.87295 7.26083 7.16304C6.96678 7.45313 6.73352 7.79752 6.57438 8.17654C6.41524 8.55557 6.33333 8.9618 6.33333 9.37205C6.33333 9.78231 6.41524 10.1885 6.57438 10.5676C6.73352 10.9466 6.96678 11.291 7.26083 11.5811C7.55488 11.8712 7.90397 12.1013 8.28817 12.2583C8.67237 12.4153 9.08415 12.4961 9.5 12.4961C10.3399 12.4961 11.1453 12.1669 11.7392 11.5811C12.333 10.9952 12.6667 10.2006 12.6667 9.37205C12.6667 8.54351 12.333 7.74891 11.7392 7.16304C11.1453 6.57717 10.3399 6.24804 9.5 6.24804Z" fill="var(--fill-0, #4156A9)"/>
</svg>
