<svg preserveAspectRatio="none" width="100%" height="100%" overflow="visible" style="display: block;" viewBox="0 0 26 26" fill="none" xmlns="http://www.w3.org/2000/svg">
<g id="location_fill">
<g id="Vector">
</g>
<path id="Vector_2" d="M13 2.16662C15.5859 2.16662 18.0658 3.19385 19.8943 5.02233C21.7228 6.85081 22.75 9.33076 22.75 11.9166C22.75 15.2468 20.9343 17.9725 19.0212 19.9279C18.0651 20.8941 17.0222 21.7702 15.9055 22.5452L15.444 22.8594L15.2273 23.0035L14.8189 23.2635L14.4549 23.4855L14.0043 23.7477C13.6982 23.9219 13.3521 24.0135 13 24.0135C12.6479 24.0135 12.3018 23.9219 11.9958 23.7477L11.5451 23.4855L10.9818 23.1389L10.7737 23.0035L10.3296 22.7077C9.12489 21.8923 8.00266 20.9613 6.97883 19.9279C5.06567 17.9714 3.25 15.2468 3.25 11.9166C3.25 9.33076 4.27723 6.85081 6.10571 5.02233C7.93419 3.19385 10.4141 2.16662 13 2.16662ZM13 8.66662C12.5732 8.66662 12.1506 8.75069 11.7563 8.91401C11.362 9.07734 11.0037 9.31673 10.7019 9.61853C10.4001 9.92032 10.1607 10.2786 9.99739 10.6729C9.83406 11.0672 9.75 11.4898 9.75 11.9166C9.75 12.3434 9.83406 12.766 9.99739 13.1603C10.1607 13.5547 10.4001 13.9129 10.7019 14.2147C11.0037 14.5165 11.362 14.7559 11.7563 14.9192C12.1506 15.0826 12.5732 15.1666 13 15.1666C13.862 15.1666 14.6886 14.8242 15.2981 14.2147C15.9076 13.6052 16.25 12.7786 16.25 11.9166C16.25 11.0547 15.9076 10.228 15.2981 9.61853C14.6886 9.00903 13.862 8.66662 13 8.66662Z" fill="var(--fill-0, #4156A9)"/>
</g>
</svg>
