<svg preserveAspectRatio="none" width="100%" height="100%" overflow="visible" style="display: block;" viewBox="0 0 123 32" fill="none" xmlns="http://www.w3.org/2000/svg">
<g id="Frame 37">
<path id="Vector" d="M18.975 32C26.9131 30.8351 33 24.1561 33 16.0901C33 7.20354 25.6129 0 16.5 0C7.38705 0 0 7.20354 0 16.0901C0 24.1561 6.08685 30.8367 14.025 32V20.9171H11.55C10.8936 20.9171 10.2641 20.6629 9.79991 20.2102C9.33576 19.7576 9.075 19.1437 9.075 18.5036C9.075 17.8635 9.33576 17.2496 9.79991 16.797C10.2641 16.3444 10.8936 16.0901 11.55 16.0901H14.025V12.8721C14.025 11.3785 14.6334 9.9461 15.7165 8.88999C16.7995 7.83387 18.2684 7.24055 19.8 7.24055H20.625C21.2814 7.24055 21.9109 7.49483 22.3751 7.94745C22.8392 8.40007 23.1 9.01396 23.1 9.65406C23.1 10.2942 22.8392 10.9081 22.3751 11.3607C21.9109 11.8133 21.2814 12.0676 20.625 12.0676H19.8C19.5812 12.0676 19.3714 12.1523 19.2166 12.3032C19.0619 12.4541 18.975 12.6587 18.975 12.8721V16.0901H21.45C22.1064 16.0901 22.7359 16.3444 23.2001 16.797C23.6642 17.2496 23.925 17.8635 23.925 18.5036C23.925 19.1437 23.6642 19.7576 23.2001 20.2102C22.7359 20.6629 22.1064 20.9171 21.45 20.9171H18.975V32Z" fill="var(--fill-0, white)"/>
<path id="Vector_2" d="M72.1111 0C74.4686 0 76.7295 0.936505 78.3965 2.6035C80.0635 4.27049 81 6.53141 81 8.88889V23.1111C81 25.4686 80.0635 27.7295 78.3965 29.3965C76.7295 31.0635 74.4686 32 72.1111 32H57.8889C55.5314 32 53.2705 31.0635 51.6035 29.3965C49.9365 27.7295 49 25.4686 49 23.1111V8.88889C49 6.53141 49.9365 4.27049 51.6035 2.6035C53.2705 0.936505 55.5314 0 57.8889 0H72.1111ZM65 8.88889C63.114 8.88889 61.3053 9.63809 59.9717 10.9717C58.6381 12.3053 57.8889 14.114 57.8889 16C57.8889 17.886 58.6381 19.6947 59.9717 21.0283C61.3053 22.3619 63.114 23.1111 65 23.1111C66.886 23.1111 68.6947 22.3619 70.0283 21.0283C71.3619 19.6947 72.1111 17.886 72.1111 16C72.1111 14.114 71.3619 12.3053 70.0283 10.9717C68.6947 9.63809 66.886 8.88889 65 8.88889ZM65 12.4444C65.943 12.4444 66.8474 12.819 67.5142 13.4858C68.181 14.1526 68.5556 15.057 68.5556 16C68.5556 16.943 68.181 17.8474 67.5142 18.5142C66.8474 19.181 65.943 19.5556 65 19.5556C64.057 19.5556 63.1526 19.181 62.4858 18.5142C61.819 17.8474 61.4444 16.943 61.4444 16C61.4444 15.057 61.819 14.1526 62.4858 13.4858C63.1526 12.819 64.057 12.4444 65 12.4444ZM73 6.22222C72.5285 6.22222 72.0763 6.40952 71.7429 6.74292C71.4095 7.07632 71.2222 7.5285 71.2222 8C71.2222 8.4715 71.4095 8.92368 71.7429 9.25708C72.0763 9.59048 72.5285 9.77778 73 9.77778C73.4715 9.77778 73.9237 9.59048 74.2571 9.25708C74.5905 8.92368 74.7778 8.4715 74.7778 8C74.7778 7.5285 74.5905 7.07632 74.2571 6.74292C73.9237 6.40952 73.4715 6.22222 73 6.22222Z" fill="var(--fill-0, white)"/>
<path id="Vector_3" fill-rule="evenodd" clip-rule="evenodd" d="M113.25 0C114.112 0 114.939 0.337146 115.548 0.937271C116.158 1.53739 116.5 2.35134 116.5 3.20004C116.501 4.30584 116.889 5.37753 117.599 6.23443C118.309 7.09133 119.297 7.68103 120.397 7.90411C121.241 8.073 121.983 8.56538 122.459 9.27292C122.935 9.98047 123.107 10.8452 122.935 11.677C122.763 12.5087 122.263 13.2393 121.545 13.708C120.826 14.1767 119.948 14.3451 119.103 14.1762C118.203 13.9959 117.329 13.7085 116.5 13.3202V22.4003C116.5 24.1959 115.988 25.9555 115.024 27.4792C114.059 29.0029 112.679 30.2296 111.042 31.0199C109.404 31.8103 107.574 32.1327 105.76 31.9504C103.946 31.7681 102.22 31.0885 100.779 29.9888C99.3369 28.8891 98.2375 27.4133 97.6051 25.7291C96.9726 24.045 96.8326 22.2199 97.2009 20.4613C97.5691 18.7027 98.4309 17.081 99.6883 15.7805C100.946 14.48 102.548 13.5528 104.314 13.1042C105.144 12.9072 106.018 13.0393 106.75 13.4719C107.481 13.9046 108.01 14.603 108.223 15.4165C108.436 16.23 108.316 17.0934 107.888 17.8201C107.46 18.5469 106.759 19.0788 105.936 19.3011C105.174 19.5001 104.511 19.9647 104.071 20.6085C103.631 21.2524 103.444 22.0316 103.543 22.8015C103.643 23.5714 104.022 24.2795 104.612 24.7943C105.202 25.3091 105.962 25.5955 106.75 25.6003C107.612 25.6003 108.439 25.2632 109.048 24.6631C109.658 24.0629 110 23.249 110 22.4003V3.20004C110 2.35134 110.342 1.53739 110.952 0.937271C111.561 0.337146 112.388 0 113.25 0Z" fill="var(--fill-0, white)"/>
</g>
</svg>
