<svg preserveAspectRatio="none" width="100%" height="100%" overflow="visible" style="display: block;" viewBox="0 0 34 34" fill="none" xmlns="http://www.w3.org/2000/svg">
<g id="location_fill">
<g id="Vector">
</g>
<path id="Vector_2" d="M17 2.83328C20.3815 2.83328 23.6245 4.17658 26.0156 6.56766C28.4067 8.95875 29.75 12.2018 29.75 15.5833C29.75 19.9381 27.3757 23.5024 24.8738 26.0595C23.6236 27.323 22.2598 28.4688 20.7995 29.4822L20.196 29.893L19.9127 30.0814L19.3786 30.4214L18.9026 30.7119L18.3132 31.0547C17.9131 31.2825 17.4605 31.4023 17 31.4023C16.5395 31.4023 16.0869 31.2825 15.6867 31.0547L15.0974 30.7119L14.3607 30.2585L14.0887 30.0814L13.5079 29.6947C11.9326 28.6284 10.465 27.4109 9.12617 26.0595C6.62433 23.501 4.25 19.9381 4.25 15.5833C4.25 12.2018 5.5933 8.95875 7.98439 6.56766C10.3755 4.17658 13.6185 2.83328 17 2.83328ZM17 11.3333C16.4419 11.3333 15.8892 11.4432 15.3736 11.6568C14.858 11.8704 14.3894 12.1834 13.9948 12.5781C13.6001 12.9727 13.2871 13.4412 13.0735 13.9569C12.8599 14.4725 12.75 15.0252 12.75 15.5833C12.75 16.1414 12.8599 16.694 13.0735 17.2097C13.2871 17.7253 13.6001 18.1938 13.9948 18.5885C14.3894 18.9831 14.858 19.2962 15.3736 19.5098C15.8892 19.7233 16.4419 19.8333 17 19.8333C18.1272 19.8333 19.2082 19.3855 20.0052 18.5885C20.8022 17.7915 21.25 16.7104 21.25 15.5833C21.25 14.4561 20.8022 13.3751 20.0052 12.5781C19.2082 11.781 18.1272 11.3333 17 11.3333Z" fill="var(--fill-0, #4156A9)"/>
</g>
</svg>
