<svg width="307" height="72" viewBox="0 0 307 72" fill="none" xmlns="http://www.w3.org/2000/svg">
<!-- Heart icon - colorful -->
<path d="M174.163 26.6535C181.05 23.9478 185.682 17.5949 186.144 10.394C186.173 10.3988 186.19 10.4015 186.19 10.4015V20.8894C186.19 28.5731 181.426 35.4829 174.162 38.3365C166.897 41.1901 162.134 48.1 162.134 55.7837V51.3836V44.1C162.134 36.4163 166.897 29.5065 174.162 26.6529L174.163 26.6535Z" fill="#CA8454"/>
<path d="M150.194 26.6535C143.307 23.9478 138.675 17.5949 138.212 10.394C138.184 10.3988 138.167 10.4015 138.167 10.4015V20.8894C138.167 28.5731 142.93 35.4829 150.195 38.3365C157.459 41.1901 162.223 48.1 162.223 55.7837V44.1007C162.223 36.417 157.459 29.5071 150.195 26.6535H150.194Z" fill="#373E6E"/>
<path d="M162.176 29.6604V17.9774C162.176 10.2936 157.412 3.38382 150.148 0.530222C150.07 0.504447 149.992 0.478671 149.914 0.453574C144.104 -1.44227 138.12 2.85136 138.12 8.86379V9.20701C138.12 9.60585 138.14 10.0006 138.165 10.3947C138.626 10.3215 142.774 9.76661 150.147 12.2139C157.412 15.0675 162.175 21.9773 162.175 29.6611L162.176 29.6604Z" fill="#D8584D"/>
<path d="M150.149 12.2136C142.776 9.76626 138.627 10.3211 138.167 10.3944C138.63 17.5952 143.261 23.9481 150.149 26.6539C157.413 29.5075 162.177 36.4173 162.177 44.101V29.6607C162.177 21.977 157.413 15.0672 150.149 12.2136Z" fill="#C8D144"/>
<path d="M162.177 29.6604V17.9774C162.177 10.2936 166.941 3.38382 174.205 0.530222C174.283 0.504447 174.361 0.478671 174.439 0.453574C180.249 -1.44227 186.233 2.85136 186.233 8.86379V9.20701C186.233 9.60585 186.213 10.0006 186.188 10.3947C185.727 10.3215 181.579 9.76661 174.206 12.2139C166.942 15.0675 162.178 21.9773 162.178 29.6611L162.177 29.6604Z" fill="#E9A588"/>
<path d="M174.209 12.2136C181.582 9.76626 185.731 10.3211 186.191 10.3944C185.728 17.5952 181.096 23.9481 174.209 26.6539C166.944 29.5075 162.181 36.4173 162.181 44.101V29.6607C162.181 21.977 166.944 15.0672 174.209 12.2136Z" fill="#F4E09A"/>
<!-- Text VIDA MÍA - white -->
<path d="M14.0241 22.1798C14.7797 22.1961 15.3571 22.3914 15.7412 22.7597C16.1231 23.1267 16.3165 23.6612 16.3165 24.3476C16.3165 25.0341 16.1079 25.905 15.6956 26.8478L11.1109 37.5548L5.91632 25.4926C5.47014 24.4643 5.2436 23.6849 5.2436 23.1755C5.2436 22.8133 5.35963 22.5664 5.59653 22.4226C5.86383 22.2612 6.31829 22.1791 6.94749 22.1791V21.5937C6.1401 21.5937 5.42248 21.6114 4.80571 21.6473C4.63788 21.6636 4.39545 21.6717 4.08396 21.6717H2.54583C2.27025 21.6717 2.05476 21.6636 1.8959 21.6466C1.35856 21.6114 0.720373 21.5937 0 21.5937V22.1791C0.597433 22.1791 1.09472 22.2842 1.47804 22.4925C1.86137 22.7014 2.21154 23.0426 2.51958 23.5065C2.83729 23.9881 3.20197 24.7085 3.60394 25.6506L10.0742 40.5657H10.4775L16.8421 25.8867C17.3794 24.678 17.9354 23.7351 18.4942 23.084C19.0336 22.4572 19.62 22.1527 20.2872 22.1527V21.568C19.7022 21.568 19.1179 21.5856 18.5432 21.6209C18.3719 21.6378 18.1578 21.646 17.9057 21.646L16.8739 21.6195C15.4746 21.5673 14.5435 21.5415 14.0283 21.5415L14.0241 22.1791V22.1798Z" fill="white"/>
<path d="M44.3711 39.7727C43.6079 39.7564 43.0636 39.6791 42.7535 39.5428C42.4793 39.4227 42.2818 39.1351 42.1657 38.6874C42.0373 38.195 41.9731 37.3485 41.9731 36.1716V25.7279C41.9731 24.5517 42.038 23.7052 42.1657 23.2121C42.2818 22.7644 42.4793 22.4768 42.7535 22.3567C43.0609 22.2211 43.6037 22.1526 44.3662 22.1526V21.5679C43.5526 21.5679 42.8523 21.5855 42.2852 21.6201H42.2776C42.107 21.6377 41.8639 21.6459 41.5559 21.6459H40.2298C39.9217 21.6459 39.6786 21.6377 39.5004 21.6201C38.9327 21.5855 38.2324 21.5679 37.4194 21.5679V22.1526C38.1819 22.1526 38.7248 22.2211 39.0328 22.3561C39.307 22.4775 39.5053 22.7651 39.6206 23.2114C39.7484 23.7052 39.8126 24.5517 39.8126 25.7272V36.171C39.8126 37.3471 39.7477 38.1936 39.6206 38.6868C39.5046 39.1344 39.3064 39.422 39.0328 39.5421C38.7227 39.6784 38.1785 39.7558 37.4194 39.772V40.3574C38.233 40.3574 38.9327 40.3398 39.5087 40.3045C39.6745 40.2875 39.9176 40.2794 40.2305 40.2794H41.5566C41.8694 40.2794 42.1126 40.2875 42.2859 40.3052C42.853 40.3398 43.5533 40.3574 44.3669 40.3574L44.3711 39.772V39.7727Z" fill="white"/>
<path d="M62.1338 40.3581C62.9474 40.3581 63.6471 40.3405 64.2231 40.3052C64.3888 40.2882 64.632 40.2801 64.9448 40.2801H70.0634C72.5022 40.2801 74.6343 39.9158 76.4004 39.1968C78.1802 38.4731 79.5637 37.396 80.5106 35.9973C81.4568 34.5987 81.9368 32.9049 81.9368 30.963C81.9368 29.021 81.4616 27.3327 80.5237 25.9422C79.5851 24.5517 78.2072 23.4752 76.4273 22.742C74.6599 22.0142 72.5098 21.6459 70.0365 21.6459H64.9448C64.6368 21.6459 64.3937 21.6377 64.2155 21.6201C63.6477 21.5855 62.9474 21.5679 62.1345 21.5679V22.1526C62.897 22.1526 63.4399 22.2211 63.7479 22.3561C64.0221 22.4775 64.2203 22.7651 64.3357 23.2114C64.4634 23.7052 64.5277 24.5517 64.5277 25.7272V36.171C64.5277 37.3471 64.4627 38.1936 64.3357 38.6868C64.2196 39.1344 64.0214 39.422 63.7479 39.5421C63.4378 39.6784 62.8935 39.7558 62.1345 39.772V40.3574L62.1338 40.3581ZM66.6881 35.8074V26.0928C66.6881 24.956 66.7012 24.1407 66.7275 23.6692C66.7509 23.2494 66.7993 22.7841 66.8725 22.2835H70.0102C71.8958 22.2835 73.57 22.6314 74.9852 23.3179C76.3914 24.0002 77.4951 25.0028 78.2666 26.299C79.0401 27.5986 79.4317 29.1682 79.4317 30.9637C79.4317 33.7067 78.6271 35.8623 77.0413 37.3688C75.4534 38.878 73.168 39.6432 70.2492 39.6432H66.974C66.8677 39.0307 66.7938 38.5016 66.7537 38.0682C66.7102 37.6015 66.6888 36.8411 66.6888 35.8081L66.6881 35.8074Z" fill="white"/>
<path d="M117.162 39.7727C116.691 39.7727 116.292 39.6696 115.974 39.4668C115.649 39.2599 115.345 38.9194 115.071 38.4541C114.785 37.9677 114.436 37.244 114.036 36.3018L107.539 21.1514H107.232L107.172 21.2504C106.97 21.5868 106.535 21.8636 105.853 22.084C105.755 22.1315 105.661 22.2509 105.728 22.4483L106.514 24.2397L100.747 36.0861C100.174 37.2793 99.6076 38.2065 99.064 38.8421C98.5495 39.4444 98.0066 39.7571 97.4575 39.7727V40.3581C97.9548 40.3581 98.4424 40.3404 98.9135 40.3052C99.0654 40.2875 99.2519 40.2801 99.4729 40.2801C99.9384 40.2801 100.308 40.2882 100.606 40.3065C101.594 40.3411 102.577 40.3587 103.53 40.3587L103.533 39.7734C102.663 39.7578 101.999 39.5828 101.558 39.2545C101.131 38.9363 100.923 38.4988 100.923 37.9175C100.923 37.4298 101.077 36.8723 101.381 36.2584L102.254 34.446H110.899L111.772 36.4565C112.185 37.4522 112.394 38.1712 112.394 38.5945C112.394 39.0177 112.238 39.287 111.917 39.4593C111.558 39.6513 110.956 39.7564 110.133 39.7727V40.3581C111.156 40.3581 112.035 40.3404 112.748 40.3058C112.97 40.2882 113.268 40.2801 113.66 40.2801H115.119C115.292 40.2801 115.539 40.2929 115.858 40.318C116.189 40.3445 116.627 40.3581 117.161 40.3581V39.7727H117.162ZM106.835 25.0468L110.62 33.8084H102.582L106.835 25.0468Z" fill="white"/>
<path d="M235.443 21.647C234.63 21.647 233.929 21.6646 233.355 21.6999C233.183 21.7168 232.949 21.725 232.658 21.725H231.381L223.95 32.6727L215.603 21.725H214.758C214.467 21.725 214.233 21.7168 214.055 21.6992C213.487 21.6646 212.778 21.647 211.947 21.647L211.969 22.2317C212.735 22.2493 213.275 22.3219 213.577 22.4494C213.841 22.562 214.034 22.8448 214.149 23.2912C214.278 23.7843 214.342 24.6308 214.342 25.807V36.3287C214.342 37.4262 214.109 38.3026 213.65 38.9334C213.2 39.5507 212.548 39.8511 211.656 39.8511V40.4365C212.364 40.4365 213.099 40.4189 213.848 40.3843C214.052 40.3666 214.324 40.3585 214.679 40.3585C215.034 40.3585 215.348 40.3666 215.598 40.385C216.375 40.4196 217.198 40.4372 218.047 40.4372L218.05 39.8518C217.031 39.8362 216.291 39.493 215.787 38.8025C215.276 38.1032 215.017 37.1312 215.017 35.9123V24.6871L223.578 35.7691C223.682 35.8702 223.779 35.8756 223.843 35.8607L223.971 35.8003L224.013 35.7128C224.159 35.411 224.533 35.0128 225.126 34.5319L225.277 34.4092L224.371 33.2235L230.89 23.5598V36.2514C230.89 37.4445 230.83 38.3012 230.709 38.7957C230.602 39.2414 230.409 39.5283 230.136 39.6483C229.827 39.784 229.282 39.8613 228.483 39.8817L228.465 40.4704C228.486 40.4704 228.507 40.4684 228.527 40.4636C229.412 40.4453 230.066 40.4196 230.518 40.3856L232.66 40.3334C232.95 40.3334 233.184 40.3416 233.363 40.3592C233.93 40.3938 234.63 40.4114 235.444 40.4114L235.448 39.8267C234.684 39.8098 234.145 39.7331 233.845 39.5975C233.578 39.4774 233.384 39.1891 233.269 38.7408C233.141 38.2483 233.076 37.4018 233.076 36.225V25.807C233.076 24.6308 233.141 23.7843 233.269 23.2912C233.385 22.8435 233.578 22.5552 233.845 22.4345C234.143 22.2995 234.681 22.2317 235.443 22.2317V21.647Z" fill="white"/>
<path d="M254.755 19.9849C254.805 20.0175 254.861 20.0324 254.915 20.0324C254.956 20.0324 254.996 20.0242 255.029 20.0066C255.888 19.7075 256.665 19.3459 257.337 18.9322C258.013 18.5164 258.541 18.0958 258.908 17.6828C259.295 17.2453 259.493 16.8742 259.515 16.5344C259.515 16.0752 259.266 15.812 258.832 15.812C258.618 15.812 258.428 15.8927 258.284 16.046C258.168 16.1695 258.005 16.396 257.785 16.7379C257.406 17.3144 257.002 17.8354 256.585 18.2871C256.18 18.7267 255.575 19.1547 254.786 19.5596L254.737 19.5942C254.653 19.6756 254.642 19.757 254.647 19.8106L254.673 19.9313L254.755 19.9842V19.9849Z" fill="white"/>
<path d="M260.163 39.8513C259.399 39.8351 258.855 39.7577 258.545 39.6214C258.271 39.5013 258.073 39.2137 257.957 38.7661C257.829 38.2736 257.765 37.4271 257.765 36.2502V25.8065C257.765 24.6303 257.829 23.7838 257.957 23.2907C258.073 22.843 258.271 22.5554 258.545 22.4353C258.852 22.2997 259.395 22.2312 260.158 22.2312V21.6465C259.344 21.6465 258.644 21.6641 258.077 21.6987H258.069C257.899 21.7163 257.655 21.7245 257.347 21.7245H256.021C255.713 21.7245 255.47 21.7163 255.292 21.6987C254.724 21.6641 254.024 21.6465 253.211 21.6465V22.2312C253.973 22.2312 254.516 22.2997 254.824 22.4347C255.099 22.5561 255.297 22.8437 255.412 23.29C255.54 23.7838 255.604 24.6303 255.604 25.8058V36.2496C255.604 37.4257 255.539 38.2723 255.412 38.7654C255.296 39.2131 255.098 39.5007 254.824 39.6207C254.514 39.757 253.97 39.8344 253.211 39.8507V40.436C254.025 40.436 254.724 40.4184 255.3 40.3831C255.466 40.3662 255.709 40.358 256.022 40.358H257.348C257.661 40.358 257.904 40.3662 258.077 40.3838C258.644 40.4184 259.345 40.436 260.158 40.436L260.163 39.8507V39.8513Z" fill="white"/>
<path d="M296.994 39.8513C296.524 39.8513 296.124 39.7482 295.806 39.5454C295.482 39.3385 295.178 38.998 294.904 38.5327C294.618 38.0464 294.269 37.3226 293.868 36.3804L287.371 21.23H287.064L287.004 21.329C286.803 21.6654 286.368 21.9422 285.685 22.1626C285.587 22.2101 285.494 22.3295 285.561 22.5269L286.346 24.3183L280.579 36.1648C280.006 37.3579 279.44 38.2851 278.897 38.9207C278.382 39.523 277.839 39.8357 277.29 39.8513V40.4367C277.787 40.4367 278.275 40.419 278.746 40.3838C278.898 40.3661 279.084 40.3587 279.305 40.3587C279.771 40.3587 280.14 40.3668 280.438 40.3851C281.426 40.4197 282.41 40.4374 283.362 40.4374L283.366 39.852C282.496 39.8364 281.831 39.6614 281.391 39.3331C280.964 39.015 280.756 38.5775 280.756 37.9962C280.756 37.5085 280.91 36.9509 281.214 36.337L282.086 34.5246H290.732L291.605 36.5351C292.017 37.5308 292.227 38.2498 292.227 38.6731C292.227 39.0964 292.07 39.3656 291.75 39.5379C291.391 39.7299 290.789 39.835 289.965 39.8513V40.4367C290.989 40.4367 291.867 40.419 292.58 40.3844C292.803 40.3668 293.1 40.3587 293.493 40.3587H294.951C295.125 40.3587 295.371 40.3716 295.691 40.3967C296.022 40.4231 296.46 40.4367 296.994 40.4367V39.8513H296.994ZM286.667 25.1254L290.452 33.887H282.415L286.667 25.1254Z" fill="white"/>
<path d="M305.273 38.1289C305.362 38.1106 305.49 38.1011 305.611 38.1011C305.8 38.1011 305.921 38.135 306.006 38.2103C306.075 38.27 306.113 38.3615 306.113 38.4646C306.113 38.6417 306 38.759 305.856 38.8065V38.8126C305.961 38.8486 306.024 38.9435 306.057 39.0833C306.102 39.2705 306.134 39.3993 306.162 39.4516H305.98C305.958 39.4136 305.927 39.2983 305.889 39.1314C305.848 38.9462 305.776 38.877 305.615 38.8709H305.45V39.4516H305.273V38.1289ZM305.449 38.7394H305.629C305.818 38.7394 305.937 38.6383 305.937 38.485C305.937 38.312 305.809 38.2361 305.623 38.2347C305.538 38.2347 305.477 38.2428 305.449 38.2503V38.7394Z" fill="white"/>
<path d="M305.629 40.0859C304.873 40.0859 304.258 39.4822 304.258 38.7395C304.258 37.9968 304.873 37.3931 305.629 37.3931C306.385 37.3931 307 37.9968 307 38.7395C307 39.4822 306.385 40.0859 305.629 40.0859ZM305.629 37.5592C304.966 37.5592 304.427 38.089 304.427 38.7395C304.427 39.39 304.967 39.9197 305.629 39.9197C306.291 39.9197 306.831 39.39 306.831 38.7395C306.831 38.089 306.291 37.5592 305.629 37.5592Z" fill="white"/>
</svg>
