<svg width="45" height="45" viewBox="0 0 45 45" fill="none" xmlns="http://www.w3.org/2000/svg">
  <path d="M22.5 4C12.283 4 4 12.283 4 22.5c0 3.548.92 6.876 2.527 9.775L4 41l8.937-2.515A18.43 18.43 0 0022.5 41C32.717 41 41 32.717 41 22.5S32.717 4 22.5 4z" fill="white"/>
  <path d="M32.1 28.5c-.5.7-1.3 1.4-2.2 1.7-.9.3-2 .4-3.4-.1-1.9-.6-3.8-1.5-5.5-2.8-1.7-1.3-3.1-2.9-4.2-4.8-.6-.9-1-2-1.1-3.1-.1-1.1.2-2.2.9-3.1.3-.4.7-.7 1.2-.9.5-.2 1-.1 1.4.1.4.2.7.5.9.9l1.2 2.4c.2.4.2.9 0 1.3-.2.4-.5.7-.8 1-.1.1-.1.3 0 .4.9 1.5 2.1 2.7 3.5 3.6.1.1.3.1.4 0 .3-.3.6-.6 1-.8.4-.2.8-.2 1.2 0l2.4 1.4c.4.2.7.5.9.9.2.4.2.9 0 1.4-.1.5-.4 1-.8 1.5z" fill="#8f4027"/>
</svg>
